<?xml version="1.0" encoding="UTF-8" standalone="no"?><!DOCTYPE svg PUBLIC "-//W3C//DTD SVG 1.1//EN" "http://www.w3.org/Graphics/SVG/1.1/DTD/svg11.dtd"><svg width="100%" height="100%" viewBox="0 0 140 139" version="1.1" xmlns="http://www.w3.org/2000/svg" xmlns:xlink="http://www.w3.org/1999/xlink" xml:space="preserve" xmlns:serif="http://www.serif.com/" style="fill-rule:evenodd;clip-rule:evenodd;stroke-linejoin:round;stroke-miterlimit:2;"><g><rect x="68.545" y="42.264" width="2.073" height="2.074" style="fill:#62ff88;"/><rect x="68.082" y="39.167" width="2.072" height="2.075" style="fill:#62ff88;"/><path d="M68.394,44.795l0,0.025c0.031,-0.01 0.064,-0.015 0.099,-0.025l-0.099,0Z" style="fill:#62ff88;fill-rule:nonzero;"/><rect x="67.211" y="30.355" width="2.072" height="2.075" style="fill:#62ff88;"/><rect x="67.692" y="36.139" width="2.073" height="2.074" style="fill:#62ff88;"/><rect x="67.396" y="33.196" width="2.072" height="2.074" style="fill:#62ff88;"/><rect x="63.615" y="37.656" width="2.073" height="2.075" style="fill:#62ff88;"/><rect x="63.102" y="34.515" width="2.073" height="2.074" style="fill:#62ff88;"/><rect x="67.147" y="27.627" width="2.072" height="2.074" style="fill:#62ff88;"/><rect x="62.71" y="31.485" width="2.073" height="2.074" style="fill:#62ff88;"/><rect x="62.379" y="25.841" width="2.074" height="2.074" style="fill:#62ff88;"/><rect x="62.464" y="28.588" width="2.073" height="2.075" style="fill:#62ff88;"/><rect x="62.461" y="23.245" width="2.073" height="2.075" style="fill:#62ff88;"/><rect x="71.596" y="26.451" width="2.075" height="2.075" style="fill:#62ff88;"/><rect x="76.16" y="41.403" width="2.075" height="2.075" style="fill:#62ff88;"/><rect x="64.222" y="40.886" width="2.073" height="2.074" style="fill:#62ff88;"/><rect x="75.942" y="38.534" width="2.075" height="2.074" style="fill:#62ff88;"/><path d="M76.391,45.818c0.687,-0.086 1.38,-0.143 2.075,-0.187l0,-1.344l-2.075,0l0,1.531Z" style="fill:#62ff88;fill-rule:nonzero;"/><rect x="75.676" y="32.946" width="2.075" height="2.075" style="fill:#62ff88;"/><rect x="75.779" y="35.712" width="2.075" height="2.074" style="fill:#62ff88;"/><rect x="67.209" y="25.012" width="2.072" height="2.075" style="fill:#62ff88;"/><rect x="72.251" y="40.405" width="2.075" height="2.075" style="fill:#62ff88;"/><path d="M72.594,45.376c0.685,-0.145 1.38,-0.241 2.075,-0.344l0,-1.641l-2.075,0l0,1.985Z" style="fill:#62ff88;fill-rule:nonzero;"/><rect x="71.958" y="37.467" width="2.075" height="2.074" style="fill:#62ff88;"/><rect x="75.64" y="30.244" width="2.075" height="2.074" style="fill:#62ff88;"/><rect x="71.736" y="34.592" width="2.075" height="2.074" style="fill:#62ff88;"/><rect x="71.597" y="31.793" width="2.075" height="2.075" style="fill:#62ff88;"/><rect x="71.55" y="29.08" width="2.075" height="2.074" style="fill:#62ff88;"/><rect x="54.681" y="37.31" width="2.075" height="2.074" style="fill:#62ff88;"/><rect x="46.994" y="27.502" width="2.073" height="2.074" style="fill:#62ff88;"/><rect x="48.127" y="31.212" width="2.073" height="2.075" style="fill:#62ff88;"/><rect x="45.552" y="20.838" width="2.074" height="2.075" style="fill:#62ff88;"/><rect x="45.358" y="17.989" width="2.073" height="2.074" style="fill:#62ff88;"/><rect x="55.789" y="40.997" width="2.076" height="2.073" style="fill:#62ff88;"/><path d="M56.772,45.891c0.682,-0.443 1.366,-0.883 2.076,-1.274l0,-0.05l-2.076,0l0,1.324Z" style="fill:#62ff88;fill-rule:nonzero;"/><path d="M64.758,45.084c0.682,-0.276 1.376,-0.522 2.073,-0.752l0,-0.286l-2.073,0l0,1.037Z" style="fill:#62ff88;fill-rule:nonzero;"/><rect x="65.062" y="129.621" width="2.076" height="2.073" style="fill:#62ff88;"/><rect x="65.062" y="132.293" width="2.076" height="2.074" style="fill:#62ff88;"/><rect x="49.436" y="35.085" width="2.073" height="2.074" style="fill:#62ff88;"/><rect x="65.062" y="126.951" width="2.076" height="2.074" style="fill:#62ff88;"/><path d="M52.282,45.11l1.704,0c0.128,-0.091 0.244,-0.195 0.37,-0.283l0,-1.791l-2.074,0l0,2.075Z" style="fill:#62ff88;fill-rule:nonzero;"/><rect x="65.062" y="124.281" width="2.076" height="2.074" style="fill:#62ff88;"/><rect x="46.113" y="24.023" width="2.073" height="2.074" style="fill:#62ff88;"/><rect x="57.306" y="26.446" width="2.074" height="2.075" style="fill:#62ff88;"/><rect x="57.63" y="29.413" width="2.074" height="2.074" style="fill:#62ff88;"/><rect x="58.817" y="35.843" width="2.074" height="2.075" style="fill:#62ff88;"/><rect x="58.145" y="32.557" width="2.074" height="2.074" style="fill:#62ff88;"/><rect x="57.303" y="21.101" width="2.074" height="2.075" style="fill:#62ff88;"/><rect x="57.194" y="23.673" width="2.074" height="2.074" style="fill:#62ff88;"/><rect x="53.662" y="33.702" width="2.076" height="2.075" style="fill:#62ff88;"/><rect x="51.687" y="23.879" width="2.076" height="2.075" style="fill:#62ff88;"/><rect x="59.607" y="39.24" width="2.074" height="2.074" style="fill:#62ff88;"/><rect x="52.788" y="30.231" width="2.076" height="2.074" style="fill:#62ff88;"/><rect x="52.114" y="26.941" width="2.076" height="2.074" style="fill:#62ff88;"/><rect x="51.684" y="18.534" width="2.076" height="2.075" style="fill:#62ff88;"/><rect x="51.54" y="21.074" width="2.076" height="2.074" style="fill:#62ff88;"/><rect x="50.844" y="39.046" width="2.073" height="2.073" style="fill:#62ff88;"/><rect x="92.896" y="43.817" width="2.074" height="2.075" style="fill:#62ff88;"/><rect x="92.836" y="38.42" width="2.073" height="2.074" style="fill:#62ff88;"/><rect x="92.862" y="41.116" width="2.073" height="2.074" style="fill:#62ff88;"/><rect x="92.818" y="35.734" width="2.074" height="2.075" style="fill:#62ff88;"/><rect x="92.813" y="33.059" width="2.074" height="2.074" style="fill:#62ff88;"/><rect x="95.908" y="46.665" width="2.076" height="2.074" style="fill:#62ff88;"/><rect x="92.818" y="30.393" width="2.073" height="2.075" style="fill:#62ff88;"/><path d="M95.935,50.393c0.17,0.069 0.346,0.117 0.515,0.188c0.535,0.228 1.042,0.505 1.562,0.759l0,-1.981l-2.076,0l0,1.034Z" style="fill:#62ff88;fill-rule:nonzero;"/><rect x="89.703" y="35.464" width="2.074" height="2.075" style="fill:#62ff88;"/><rect x="89.695" y="32.785" width="2.073" height="2.074" style="fill:#62ff88;"/><rect x="89.729" y="38.158" width="2.073" height="2.074" style="fill:#62ff88;"/><path d="M92.971,49.246c0.703,0.213 1.387,0.48 2.074,0.74l0,-0.759l-2.074,0l0,0.018Z" style="fill:#62ff88;fill-rule:nonzero;"/><rect x="92.937" y="46.526" width="2.074" height="2.074" style="fill:#62ff88;"/><rect x="89.768" y="40.867" width="2.073" height="2.074" style="fill:#62ff88;"/><rect x="89.703" y="30.122" width="2.073" height="2.075" style="fill:#62ff88;"/><rect x="98.838" y="49.436" width="2.075" height="2.073" style="fill:#62ff88;"/><rect x="98.809" y="44.066" width="2.075" height="2.075" style="fill:#62ff88;"/><rect x="98.822" y="46.751" width="2.075" height="2.074" style="fill:#62ff88;"/><rect x="98.797" y="41.386" width="2.074" height="2.074" style="fill:#62ff88;"/><rect x="98.782" y="36.03" width="2.074" height="2.075" style="fill:#62ff88;"/><rect x="98.788" y="38.706" width="2.075" height="2.074" style="fill:#62ff88;"/><rect x="95.846" y="38.595" width="2.077" height="2.074" style="fill:#62ff88;"/><rect x="95.835" y="35.915" width="2.076" height="2.075" style="fill:#62ff88;"/><rect x="95.883" y="43.971" width="2.076" height="2.075" style="fill:#62ff88;"/><rect x="95.863" y="41.282" width="2.075" height="2.074" style="fill:#62ff88;"/><rect x="95.832" y="33.242" width="2.076" height="2.074" style="fill:#62ff88;"/><path d="M100.93,52.985l0,-0.864l-1.405,0c0.482,0.266 0.935,0.576 1.405,0.864" style="fill:#62ff88;fill-rule:nonzero;"/><rect x="95.835" y="30.574" width="2.076" height="2.075" style="fill:#62ff88;"/><rect x="86.464" y="29.739" width="2.074" height="2.075" style="fill:#62ff88;"/><path d="M83.439,46.881c0.692,0.027 1.39,0.036 2.074,0.104l0,-1.408l-2.074,0l0,1.305Z" style="fill:#62ff88;fill-rule:nonzero;"/><rect x="79.56" y="25.91" width="2.075" height="2.075" style="fill:#62ff88;"/><rect x="79.461" y="31.16" width="2.075" height="2.074" style="fill:#62ff88;"/><rect x="79.485" y="28.513" width="2.075" height="2.075" style="fill:#62ff88;"/><rect x="83.322" y="42.797" width="2.074" height="2.075" style="fill:#62ff88;"/><rect x="83.208" y="40.024" width="2.074" height="2.074" style="fill:#62ff88;"/><rect x="83.122" y="37.274" width="2.075" height="2.074" style="fill:#62ff88;"/><rect x="79.84" y="42.19" width="2.075" height="2.075" style="fill:#62ff88;"/><path d="M80,46.317c0.486,-0.019 0.968,-0.071 1.457,-0.071c0.207,0 0.409,0.027 0.617,0.031l0,-1.268l-2.075,0l0,1.308Z" style="fill:#62ff88;fill-rule:nonzero;"/><rect x="75.777" y="25.027" width="2.075" height="2.075" style="fill:#62ff88;"/><rect x="79.486" y="33.855" width="2.075" height="2.075" style="fill:#62ff88;"/><rect x="79.561" y="36.594" width="2.075" height="2.074" style="fill:#62ff88;"/><rect x="79.681" y="39.376" width="2.075" height="2.074" style="fill:#62ff88;"/><rect x="86.562" y="40.511" width="2.073" height="2.074" style="fill:#62ff88;"/><rect x="86.452" y="32.398" width="2.074" height="2.074" style="fill:#62ff88;"/><rect x="86.501" y="37.785" width="2.074" height="2.074" style="fill:#62ff88;"/><rect x="86.465" y="35.08" width="2.074" height="2.075" style="fill:#62ff88;"/><rect x="75.675" y="27.604" width="2.075" height="2.075" style="fill:#62ff88;"/><path d="M89.885,48.285c0.138,0.029 0.271,0.073 0.408,0.105l1.665,0l0,-2.075l-2.074,0l0,1.97Z" style="fill:#62ff88;fill-rule:nonzero;"/><rect x="86.501" y="27.103" width="2.074" height="2.075" style="fill:#62ff88;"/><path d="M86.731,47.529c0.695,0.085 1.387,0.181 2.073,0.309l0,-1.831l-2.073,0l0,1.522Z" style="fill:#62ff88;fill-rule:nonzero;"/><rect x="83.121" y="26.59" width="2.074" height="2.075" style="fill:#62ff88;"/><rect x="83.068" y="29.212" width="2.074" height="2.075" style="fill:#62ff88;"/><rect x="89.822" y="43.585" width="2.073" height="2.075" style="fill:#62ff88;"/><rect x="83.051" y="31.867" width="2.074" height="2.074" style="fill:#62ff88;"/><rect x="83.068" y="34.554" width="2.075" height="2.075" style="fill:#62ff88;"/><rect x="86.641" y="43.254" width="2.074" height="2.075" style="fill:#62ff88;"/><rect x="79.167" y="134.963" width="2.075" height="2.074" style="fill:#62ff88;"/><rect x="93.272" y="132.293" width="2.074" height="2.074" style="fill:#62ff88;"/><rect x="93.272" y="134.963" width="2.074" height="2.074" style="fill:#62ff88;"/><rect x="93.272" y="129.621" width="2.074" height="2.073" style="fill:#62ff88;"/><rect x="90.451" y="124.281" width="2.073" height="2.074" style="fill:#62ff88;"/><rect x="90.451" y="121.61" width="2.073" height="2.074" style="fill:#62ff88;"/><rect x="96.092" y="126.951" width="2.075" height="2.074" style="fill:#62ff88;"/><rect x="90.451" y="118.94" width="2.073" height="2.074" style="fill:#62ff88;"/><path d="M90.451,118.344l2.073,0l0,-1.123c-0.685,0.193 -1.374,0.38 -2.073,0.526l0,0.597Z" style="fill:#62ff88;fill-rule:nonzero;"/><rect x="96.092" y="132.293" width="2.075" height="2.074" style="fill:#62ff88;"/><path d="M93.272,118.344l2.074,0l0,-2.065c-0.687,0.263 -1.37,0.534 -2.074,0.75l0,1.315Z" style="fill:#62ff88;fill-rule:nonzero;"/><rect x="96.092" y="129.621" width="2.075" height="2.073" style="fill:#62ff88;"/><rect x="93.272" y="121.61" width="2.074" height="2.074" style="fill:#62ff88;"/><rect x="93.272" y="124.281" width="2.074" height="2.074" style="fill:#62ff88;"/><rect x="93.272" y="118.94" width="2.074" height="2.074" style="fill:#62ff88;"/><rect x="93.272" y="126.951" width="2.074" height="2.074" style="fill:#62ff88;"/><rect x="87.631" y="129.621" width="2.073" height="2.073" style="fill:#62ff88;"/><rect x="87.631" y="132.293" width="2.073" height="2.074" style="fill:#62ff88;"/><rect x="87.631" y="126.951" width="2.073" height="2.074" style="fill:#62ff88;"/><rect x="87.631" y="134.963" width="2.073" height="2.074" style="fill:#62ff88;"/><rect x="87.631" y="124.281" width="2.073" height="2.074" style="fill:#62ff88;"/><path d="M86.882,118.344l0,-0.029c-0.15,0.014 -0.305,0.013 -0.456,0.029l0.456,0Z" style="fill:#62ff88;fill-rule:nonzero;"/><rect x="87.631" y="118.94" width="2.073" height="2.074" style="fill:#62ff88;"/><rect x="90.451" y="132.293" width="2.073" height="2.074" style="fill:#62ff88;"/><rect x="90.451" y="129.621" width="2.073" height="2.073" style="fill:#62ff88;"/><rect x="87.631" y="121.61" width="2.073" height="2.074" style="fill:#62ff88;"/><rect x="90.451" y="134.963" width="2.073" height="2.074" style="fill:#62ff88;"/><path d="M87.631,118.344l2.073,0l0,-0.451c-0.685,0.129 -1.379,0.225 -2.073,0.31l0,0.141Z" style="fill:#62ff88;fill-rule:nonzero;"/><rect x="90.451" y="126.951" width="2.073" height="2.074" style="fill:#62ff88;"/><rect x="96.092" y="121.61" width="2.075" height="2.074" style="fill:#62ff88;"/><path d="M103.806,113.001l0,-1.474c-0.671,0.515 -1.35,1.015 -2.049,1.474l2.049,0Z" style="fill:#62ff88;fill-rule:nonzero;"/><rect x="101.733" y="116.269" width="2.074" height="2.075" style="fill:#62ff88;"/><rect x="101.733" y="113.598" width="2.074" height="2.075" style="fill:#62ff88;"/><rect x="101.733" y="118.94" width="2.074" height="2.074" style="fill:#62ff88;"/><rect x="101.733" y="121.61" width="2.074" height="2.074" style="fill:#62ff88;"/><rect x="101.733" y="124.281" width="2.074" height="2.074" style="fill:#62ff88;"/><rect x="104.555" y="116.269" width="2.074" height="2.075" style="fill:#62ff88;"/><rect x="104.555" y="118.94" width="2.074" height="2.074" style="fill:#62ff88;"/><rect x="104.555" y="121.61" width="2.074" height="2.074" style="fill:#62ff88;"/><rect x="101.733" y="126.951" width="2.074" height="2.074" style="fill:#62ff88;"/><rect x="104.555" y="126.951" width="2.074" height="2.074" style="fill:#62ff88;"/><rect x="104.555" y="124.281" width="2.074" height="2.074" style="fill:#62ff88;"/><rect x="104.555" y="129.621" width="2.074" height="2.073" style="fill:#62ff88;"/><rect x="98.912" y="132.293" width="2.075" height="2.074" style="fill:#62ff88;"/><rect x="96.092" y="116.269" width="2.075" height="2.075" style="fill:#62ff88;"/><path d="M98.168,115.674l0,-0.631c-0.432,0.213 -0.856,0.436 -1.294,0.631l1.294,0Z" style="fill:#62ff88;fill-rule:nonzero;"/><rect x="96.092" y="124.281" width="2.075" height="2.074" style="fill:#62ff88;"/><rect x="84.808" y="118.94" width="2.074" height="2.074" style="fill:#62ff88;"/><rect x="96.092" y="118.94" width="2.075" height="2.074" style="fill:#62ff88;"/><rect x="98.912" y="129.621" width="2.075" height="2.073" style="fill:#62ff88;"/><rect x="98.912" y="116.269" width="2.075" height="2.075" style="fill:#62ff88;"/><rect x="101.733" y="129.621" width="2.074" height="2.073" style="fill:#62ff88;"/><rect x="98.912" y="118.94" width="2.075" height="2.074" style="fill:#62ff88;"/><rect x="101.733" y="132.293" width="2.074" height="2.074" style="fill:#62ff88;"/><rect x="98.912" y="124.281" width="2.075" height="2.074" style="fill:#62ff88;"/><rect x="98.912" y="126.951" width="2.075" height="2.074" style="fill:#62ff88;"/><rect x="98.912" y="121.61" width="2.075" height="2.074" style="fill:#62ff88;"/><rect x="73.526" y="121.61" width="2.073" height="2.074" style="fill:#62ff88;"/><path d="M70.706,116.27l0,2.075l2.073,0l0,-1.558c-0.477,-0.159 -0.948,-0.337 -1.42,-0.516l-0.653,0Z" style="fill:#62ff88;fill-rule:nonzero;"/><rect x="73.526" y="134.963" width="2.073" height="2.074" style="fill:#62ff88;"/><rect x="84.808" y="121.61" width="2.074" height="2.074" style="fill:#62ff88;"/><rect x="70.706" y="124.281" width="2.073" height="2.074" style="fill:#62ff88;"/><rect x="70.706" y="126.951" width="2.073" height="2.074" style="fill:#62ff88;"/><rect x="70.706" y="121.61" width="2.073" height="2.074" style="fill:#62ff88;"/><rect x="73.526" y="132.293" width="2.073" height="2.074" style="fill:#62ff88;"/><rect x="70.706" y="129.621" width="2.073" height="2.073" style="fill:#62ff88;"/><rect x="73.526" y="118.94" width="2.073" height="2.074" style="fill:#62ff88;"/><path d="M73.527,118.344l2.073,0l0,-0.779c-0.695,-0.161 -1.393,-0.316 -2.073,-0.522l0,1.301Z" style="fill:#62ff88;fill-rule:nonzero;"/><rect x="65.062" y="121.61" width="2.076" height="2.074" style="fill:#62ff88;"/><rect x="73.526" y="124.281" width="2.073" height="2.074" style="fill:#62ff88;"/><rect x="73.526" y="129.621" width="2.073" height="2.073" style="fill:#62ff88;"/><rect x="73.526" y="126.951" width="2.073" height="2.074" style="fill:#62ff88;"/><rect x="65.062" y="116.269" width="2.076" height="2.075" style="fill:#62ff88;"/><rect x="70.706" y="132.293" width="2.073" height="2.074" style="fill:#62ff88;"/><rect x="67.884" y="132.293" width="2.074" height="2.074" style="fill:#62ff88;"/><rect x="67.884" y="129.621" width="2.074" height="2.073" style="fill:#62ff88;"/><rect x="65.062" y="118.94" width="2.076" height="2.074" style="fill:#62ff88;"/><rect x="67.884" y="126.951" width="2.074" height="2.074" style="fill:#62ff88;"/><rect x="76.346" y="134.963" width="2.075" height="2.074" style="fill:#62ff88;"/><path d="M65.062,113.598l0,2.075l2.076,0l0,-1.326c-0.415,-0.23 -0.809,-0.501 -1.217,-0.749l-0.86,0Z" style="fill:#62ff88;fill-rule:nonzero;"/><path d="M67.884,114.721l0,0.953l1.967,0c-0.669,-0.294 -1.32,-0.616 -1.967,-0.953" style="fill:#62ff88;fill-rule:nonzero;"/><rect x="70.706" y="134.963" width="2.073" height="2.074" style="fill:#62ff88;"/><rect x="67.884" y="116.269" width="2.074" height="2.075" style="fill:#62ff88;"/><rect x="67.884" y="118.94" width="2.074" height="2.074" style="fill:#62ff88;"/><rect x="67.884" y="121.61" width="2.074" height="2.074" style="fill:#62ff88;"/><rect x="67.884" y="124.281" width="2.074" height="2.074" style="fill:#62ff88;"/><rect x="70.706" y="118.94" width="2.073" height="2.074" style="fill:#62ff88;"/><rect x="81.988" y="126.951" width="2.075" height="2.074" style="fill:#62ff88;"/><rect x="81.988" y="129.621" width="2.075" height="2.073" style="fill:#62ff88;"/><rect x="81.988" y="124.281" width="2.075" height="2.074" style="fill:#62ff88;"/><path d="M79.168,118.2l0,0.145l1.244,0c-0.418,-0.037 -0.829,-0.093 -1.244,-0.145" style="fill:#62ff88;fill-rule:nonzero;"/><rect x="81.988" y="121.61" width="2.075" height="2.074" style="fill:#62ff88;"/><rect x="81.988" y="134.963" width="2.075" height="2.074" style="fill:#62ff88;"/><rect x="81.988" y="132.293" width="2.075" height="2.074" style="fill:#62ff88;"/><rect x="84.808" y="126.951" width="2.074" height="2.074" style="fill:#62ff88;"/><rect x="84.808" y="124.281" width="2.074" height="2.074" style="fill:#62ff88;"/><rect x="84.808" y="129.621" width="2.074" height="2.073" style="fill:#62ff88;"/><rect x="84.808" y="134.963" width="2.074" height="2.074" style="fill:#62ff88;"/><rect x="81.988" y="118.94" width="2.075" height="2.074" style="fill:#62ff88;"/><rect x="84.808" y="132.293" width="2.074" height="2.074" style="fill:#62ff88;"/><rect x="76.346" y="126.951" width="2.075" height="2.074" style="fill:#62ff88;"/><rect x="104.555" y="113.598" width="2.074" height="2.075" style="fill:#62ff88;"/><rect x="76.346" y="121.61" width="2.075" height="2.074" style="fill:#62ff88;"/><path d="M76.346,118.344l2.075,0l0,-0.253c-0.695,-0.1 -1.392,-0.196 -2.075,-0.337l0,0.59Z" style="fill:#62ff88;fill-rule:nonzero;"/><rect x="76.346" y="118.94" width="2.075" height="2.074" style="fill:#62ff88;"/><rect x="76.346" y="132.293" width="2.075" height="2.074" style="fill:#62ff88;"/><rect x="76.346" y="129.621" width="2.075" height="2.073" style="fill:#62ff88;"/><rect x="79.167" y="118.94" width="2.075" height="2.074" style="fill:#62ff88;"/><rect x="79.167" y="124.281" width="2.075" height="2.074" style="fill:#62ff88;"/><rect x="79.167" y="126.951" width="2.075" height="2.074" style="fill:#62ff88;"/><rect x="98.78" y="33.358" width="2.074" height="2.074" style="fill:#62ff88;"/><rect x="79.167" y="121.61" width="2.075" height="2.074" style="fill:#62ff88;"/><rect x="79.167" y="132.293" width="2.075" height="2.074" style="fill:#62ff88;"/><rect x="79.167" y="129.621" width="2.075" height="2.073" style="fill:#62ff88;"/><rect x="76.346" y="124.281" width="2.075" height="2.074" style="fill:#62ff88;"/><rect x="127.12" y="68.197" width="2.076" height="2.075" style="fill:#62ff88;"/><rect x="127.12" y="70.868" width="2.076" height="2.075" style="fill:#62ff88;"/><rect x="127.12" y="65.527" width="2.076" height="2.075" style="fill:#62ff88;"/><rect x="127.12" y="81.551" width="2.076" height="2.074" style="fill:#62ff88;"/><rect x="127.12" y="62.856" width="2.076" height="2.075" style="fill:#62ff88;"/><rect x="127.12" y="73.539" width="2.076" height="2.075" style="fill:#62ff88;"/><rect x="127.12" y="76.21" width="2.076" height="2.074" style="fill:#62ff88;"/><rect x="127.12" y="78.881" width="2.076" height="2.074" style="fill:#62ff88;"/><rect x="127.12" y="52.175" width="2.076" height="2.075" style="fill:#62ff88;"/><path d="M127.12,49.504l0,2.073l2.076,0l0,-1.029c-0.262,-0.351 -0.534,-0.698 -0.803,-1.044l-1.273,0Z" style="fill:#62ff88;fill-rule:nonzero;"/><rect x="127.12" y="60.186" width="2.076" height="2.074" style="fill:#62ff88;"/><path d="M127.12,47.913l0,0.995l0.8,0c-0.267,-0.332 -0.526,-0.667 -0.8,-0.995" style="fill:#62ff88;fill-rule:nonzero;"/><rect x="127.12" y="54.846" width="2.076" height="2.073" style="fill:#62ff88;"/><rect x="127.12" y="57.516" width="2.076" height="2.073" style="fill:#62ff88;"/><rect x="127.12" y="113.598" width="2.076" height="2.075" style="fill:#62ff88;"/><rect x="127.12" y="108.256" width="2.076" height="2.075" style="fill:#62ff88;"/><rect x="127.12" y="102.914" width="2.076" height="2.075" style="fill:#62ff88;"/><rect x="124.302" y="113.598" width="2.074" height="2.075" style="fill:#62ff88;"/><rect x="127.12" y="84.221" width="2.076" height="2.075" style="fill:#62ff88;"/><rect x="127.12" y="110.927" width="2.076" height="2.075" style="fill:#62ff88;"/><path d="M130.362,52.174l-0.42,0l0,2.075l1.777,0c-0.435,-0.699 -0.887,-1.393 -1.357,-2.075" style="fill:#62ff88;fill-rule:nonzero;"/><rect x="127.12" y="105.586" width="2.076" height="2.075" style="fill:#62ff88;"/><rect x="127.12" y="92.234" width="2.076" height="2.074" style="fill:#62ff88;"/><rect x="127.12" y="89.562" width="2.076" height="2.075" style="fill:#62ff88;"/><rect x="129.941" y="54.846" width="2.075" height="2.073" style="fill:#62ff88;"/><rect x="127.12" y="94.904" width="2.076" height="2.074" style="fill:#62ff88;"/><rect x="127.12" y="100.245" width="2.076" height="2.075" style="fill:#62ff88;"/><rect x="127.12" y="97.575" width="2.076" height="2.074" style="fill:#62ff88;"/><rect x="127.12" y="86.892" width="2.076" height="2.074" style="fill:#62ff88;"/><rect x="124.302" y="62.856" width="2.074" height="2.075" style="fill:#62ff88;"/><rect x="124.302" y="57.516" width="2.074" height="2.073" style="fill:#62ff88;"/><rect x="124.302" y="60.186" width="2.074" height="2.074" style="fill:#62ff88;"/><rect x="124.302" y="65.527" width="2.074" height="2.075" style="fill:#62ff88;"/><rect x="124.302" y="68.197" width="2.074" height="2.075" style="fill:#62ff88;"/><rect x="124.302" y="73.539" width="2.074" height="2.075" style="fill:#62ff88;"/><rect x="124.302" y="70.868" width="2.074" height="2.075" style="fill:#62ff88;"/><rect x="124.302" y="52.175" width="2.074" height="2.075" style="fill:#62ff88;"/><rect x="124.302" y="54.846" width="2.074" height="2.073" style="fill:#62ff88;"/><rect x="121.48" y="116.269" width="2.074" height="2.075" style="fill:#62ff88;"/><path d="M124.302,46.834l0,2.074l2.074,0l0,-1.845c-0.068,-0.077 -0.134,-0.153 -0.203,-0.229l-1.871,0Z" style="fill:#62ff88;fill-rule:nonzero;"/><path d="M124.302,44.805l0,1.433l1.351,0c-0.439,-0.485 -0.895,-0.961 -1.351,-1.433" style="fill:#62ff88;fill-rule:nonzero;"/><rect x="124.302" y="76.21" width="2.074" height="2.074" style="fill:#62ff88;"/><rect x="124.302" y="49.504" width="2.074" height="2.073" style="fill:#62ff88;"/><rect x="124.302" y="78.881" width="2.074" height="2.074" style="fill:#62ff88;"/><rect x="124.302" y="102.914" width="2.074" height="2.075" style="fill:#62ff88;"/><rect x="124.302" y="100.245" width="2.074" height="2.075" style="fill:#62ff88;"/><rect x="124.302" y="116.269" width="2.074" height="2.075" style="fill:#62ff88;"/><rect x="124.302" y="97.575" width="2.074" height="2.074" style="fill:#62ff88;"/><rect x="124.302" y="108.256" width="2.074" height="2.075" style="fill:#62ff88;"/><rect x="124.302" y="110.927" width="2.074" height="2.075" style="fill:#62ff88;"/><rect x="124.302" y="105.586" width="2.074" height="2.075" style="fill:#62ff88;"/><rect x="124.302" y="84.221" width="2.074" height="2.075" style="fill:#62ff88;"/><rect x="124.302" y="86.892" width="2.074" height="2.074" style="fill:#62ff88;"/><rect x="124.302" y="81.551" width="2.074" height="2.074" style="fill:#62ff88;"/><rect x="124.302" y="89.562" width="2.074" height="2.075" style="fill:#62ff88;"/><rect x="124.302" y="94.904" width="2.074" height="2.074" style="fill:#62ff88;"/><rect x="124.302" y="92.234" width="2.074" height="2.074" style="fill:#62ff88;"/><rect x="132.763" y="86.892" width="2.074" height="2.074" style="fill:#62ff88;"/><rect x="132.763" y="102.914" width="2.074" height="2.075" style="fill:#62ff88;"/><rect x="132.763" y="94.904" width="2.074" height="2.074" style="fill:#62ff88;"/><rect x="132.763" y="97.575" width="2.074" height="2.074" style="fill:#62ff88;"/><rect x="132.763" y="100.245" width="2.074" height="2.075" style="fill:#62ff88;"/><path d="M135.762,62.025c-0.055,-0.134 -0.121,-0.265 -0.179,-0.4l0,0.635l0.27,0c-0.031,-0.078 -0.059,-0.158 -0.091,-0.235" style="fill:#62ff88;fill-rule:nonzero;"/><path d="M135.583,65.527l0,2.075l2.075,0l0,-0.29c-0.181,-0.6 -0.385,-1.191 -0.584,-1.785l-1.49,0Z" style="fill:#62ff88;fill-rule:nonzero;"/><path d="M136.088,62.856l-0.504,0l0,2.075l1.291,0c-0.245,-0.696 -0.512,-1.387 -0.786,-2.075" style="fill:#62ff88;fill-rule:nonzero;"/><rect x="132.763" y="81.551" width="2.074" height="2.074" style="fill:#62ff88;"/><rect x="135.583" y="68.197" width="2.075" height="2.075" style="fill:#62ff88;"/><rect x="132.763" y="78.881" width="2.074" height="2.074" style="fill:#62ff88;"/><rect x="132.763" y="84.221" width="2.074" height="2.075" style="fill:#62ff88;"/><rect x="132.763" y="89.562" width="2.074" height="2.075" style="fill:#62ff88;"/><rect x="121.48" y="118.94" width="2.074" height="2.074" style="fill:#62ff88;"/><rect x="132.763" y="92.234" width="2.074" height="2.074" style="fill:#62ff88;"/><path d="M135.583,104.989l0.051,0c0.04,-0.093 0.087,-0.186 0.125,-0.28c0.25,-0.593 0.474,-1.194 0.703,-1.796l-0.88,0l0,2.075Z" style="fill:#62ff88;fill-rule:nonzero;"/><rect x="135.583" y="92.234" width="2.075" height="2.074" style="fill:#62ff88;"/><path d="M121.48,123.684l0.84,0c0.366,-0.337 0.736,-0.663 1.095,-1.009c0.048,-0.046 0.092,-0.096 0.139,-0.141l0,-0.924l-2.074,0l0,2.074Z" style="fill:#62ff88;fill-rule:nonzero;"/><rect x="135.583" y="70.868" width="2.075" height="2.075" style="fill:#62ff88;"/><path d="M139.956,81.551l-1.552,0l0,2.074l1.589,0c0,-0.092 0.006,-0.184 0.006,-0.276c0,-0.602 -0.024,-1.199 -0.044,-1.798" style="fill:#62ff88;fill-rule:nonzero;"/><rect x="135.583" y="89.562" width="2.075" height="2.075" style="fill:#62ff88;"/><rect x="132.763" y="76.21" width="2.074" height="2.074" style="fill:#62ff88;"/><rect x="135.583" y="94.904" width="2.075" height="2.074" style="fill:#62ff88;"/><rect x="135.583" y="76.21" width="2.075" height="2.074" style="fill:#62ff88;"/><rect x="135.583" y="78.881" width="2.075" height="2.074" style="fill:#62ff88;"/><rect x="135.583" y="73.539" width="2.075" height="2.075" style="fill:#62ff88;"/><rect x="135.583" y="84.221" width="2.075" height="2.075" style="fill:#62ff88;"/><rect x="135.583" y="86.892" width="2.075" height="2.074" style="fill:#62ff88;"/><rect x="135.583" y="81.551" width="2.075" height="2.074" style="fill:#62ff88;"/><rect x="132.763" y="73.539" width="2.074" height="2.075" style="fill:#62ff88;"/><rect x="129.941" y="92.234" width="2.075" height="2.074" style="fill:#62ff88;"/><rect x="129.941" y="57.516" width="2.075" height="2.073" style="fill:#62ff88;"/><rect x="129.941" y="78.881" width="2.075" height="2.074" style="fill:#62ff88;"/><rect x="129.941" y="84.221" width="2.075" height="2.075" style="fill:#62ff88;"/><rect x="129.941" y="89.562" width="2.075" height="2.075" style="fill:#62ff88;"/><rect x="129.941" y="86.892" width="2.075" height="2.074" style="fill:#62ff88;"/><rect x="129.941" y="81.551" width="2.075" height="2.074" style="fill:#62ff88;"/><rect x="129.941" y="62.856" width="2.075" height="2.075" style="fill:#62ff88;"/><rect x="129.941" y="73.539" width="2.075" height="2.075" style="fill:#62ff88;"/><rect x="129.941" y="60.186" width="2.075" height="2.074" style="fill:#62ff88;"/><rect x="129.941" y="65.527" width="2.075" height="2.075" style="fill:#62ff88;"/><rect x="129.941" y="70.868" width="2.075" height="2.075" style="fill:#62ff88;"/><rect x="129.941" y="68.197" width="2.075" height="2.075" style="fill:#62ff88;"/><rect x="129.941" y="76.21" width="2.075" height="2.074" style="fill:#62ff88;"/><rect x="132.763" y="62.856" width="2.074" height="2.075" style="fill:#62ff88;"/><rect x="132.763" y="60.186" width="2.074" height="2.074" style="fill:#62ff88;"/><rect x="132.763" y="65.527" width="2.074" height="2.075" style="fill:#62ff88;"/><rect x="129.941" y="94.904" width="2.075" height="2.074" style="fill:#62ff88;"/><rect x="132.763" y="70.868" width="2.074" height="2.075" style="fill:#62ff88;"/><path d="M133.612,57.516l-0.849,0l0,2.073l1.907,0c-0.335,-0.7 -0.694,-1.387 -1.058,-2.073" style="fill:#62ff88;fill-rule:nonzero;"/><rect x="132.763" y="68.197" width="2.074" height="2.075" style="fill:#62ff88;"/><rect x="129.941" y="100.245" width="2.075" height="2.075" style="fill:#62ff88;"/><path d="M132.763,56.001l0,0.918l0.53,0c-0.171,-0.31 -0.355,-0.612 -0.53,-0.918" style="fill:#62ff88;fill-rule:nonzero;"/><rect x="129.941" y="97.575" width="2.075" height="2.074" style="fill:#62ff88;"/><rect x="129.941" y="102.914" width="2.075" height="2.075" style="fill:#62ff88;"/><rect x="98.782" y="30.689" width="2.074" height="2.075" style="fill:#62ff88;"/><rect x="129.941" y="108.256" width="2.075" height="2.075" style="fill:#62ff88;"/><rect x="129.941" y="105.586" width="2.075" height="2.075" style="fill:#62ff88;"/><rect x="118.659" y="44.162" width="2.075" height="2.075" style="fill:#62ff88;"/><rect x="110.197" y="41.492" width="2.075" height="2.074" style="fill:#62ff88;"/><rect x="110.196" y="36.15" width="2.075" height="2.075" style="fill:#62ff88;"/><rect x="110.197" y="44.161" width="2.075" height="2.075" style="fill:#62ff88;"/><rect x="113.019" y="60.186" width="2.072" height="2.074" style="fill:#62ff88;"/><path d="M109.45,60.419l0,-0.233l-0.206,0c0.067,0.08 0.14,0.153 0.206,0.233" style="fill:#62ff88;fill-rule:nonzero;"/><path d="M112.272,64.309l0,-1.453l-0.97,0c0.333,0.478 0.659,0.96 0.97,1.453" style="fill:#62ff88;fill-rule:nonzero;"/><rect x="113.019" y="62.856" width="2.072" height="2.075" style="fill:#62ff88;"/><rect x="110.198" y="46.834" width="2.075" height="2.074" style="fill:#62ff88;"/><rect x="110.198" y="54.846" width="2.075" height="2.073" style="fill:#62ff88;"/><path d="M110.197,61.337c0.233,0.3 0.446,0.615 0.671,0.922l1.404,0l0,-2.074l-2.075,0l0,1.151Z" style="fill:#62ff88;fill-rule:nonzero;"/><rect x="110.198" y="57.516" width="2.075" height="2.073" style="fill:#62ff88;"/><rect x="110.198" y="52.175" width="2.075" height="2.075" style="fill:#62ff88;"/><rect x="110.198" y="49.504" width="2.075" height="2.073" style="fill:#62ff88;"/><path d="M113.019,65.584c0.375,0.662 0.732,1.333 1.067,2.018l1.005,0l0,-2.075l-2.072,0l0,0.057Z" style="fill:#62ff88;fill-rule:nonzero;"/><path d="M60.472,44.777l0.563,0c0.503,-0.248 0.997,-0.505 1.51,-0.727l0,-1.346l-2.074,0l0,2.073Z" style="fill:#62ff88;fill-rule:nonzero;"/><path d="M115.086,69.766c0.001,0.004 0.003,0.01 0.005,0.015l0,-1.583l-0.731,0c0.24,0.523 0.509,1.033 0.725,1.569" style="fill:#62ff88;fill-rule:nonzero;"/><path d="M98.913,114.68l0,0.994l2.075,0l0,-2.075l-0.199,0c-0.617,0.377 -1.238,0.747 -1.876,1.082" style="fill:#62ff88;fill-rule:nonzero;"/><rect x="118.659" y="41.492" width="2.075" height="2.074" style="fill:#62ff88;"/><path d="M118.659,39.745l0,1.15l1.418,0c-0.469,-0.39 -0.939,-0.776 -1.418,-1.15" style="fill:#62ff88;fill-rule:nonzero;"/><rect x="113.019" y="38.822" width="2.072" height="2.074" style="fill:#62ff88;"/><rect x="113.019" y="46.834" width="2.072" height="2.074" style="fill:#62ff88;"/><rect x="113.019" y="49.504" width="2.072" height="2.073" style="fill:#62ff88;"/><rect x="113.019" y="52.175" width="2.072" height="2.075" style="fill:#62ff88;"/><rect x="113.019" y="54.846" width="2.072" height="2.073" style="fill:#62ff88;"/><rect x="113.019" y="57.516" width="2.072" height="2.073" style="fill:#62ff88;"/><rect x="113.019" y="41.492" width="2.072" height="2.074" style="fill:#62ff88;"/><rect x="113.019" y="44.162" width="2.072" height="2.075" style="fill:#62ff88;"/><rect x="110.196" y="38.821" width="2.075" height="2.074" style="fill:#62ff88;"/><path d="M103.795,54.972l0,-0.138l-0.179,0c0.057,0.045 0.119,0.091 0.179,0.138" style="fill:#62ff88;fill-rule:nonzero;"/><path d="M104.551,55.555c0.531,0.432 1.042,0.892 1.548,1.36l0.525,0l0,-2.073l-2.073,0l0,0.713Z" style="fill:#62ff88;fill-rule:nonzero;"/><rect x="101.673" y="33.425" width="2.074" height="2.074" style="fill:#62ff88;"/><rect x="101.674" y="36.097" width="2.075" height="2.075" style="fill:#62ff88;"/><rect x="104.546" y="49.495" width="2.073" height="2.074" style="fill:#62ff88;"/><rect x="104.549" y="52.168" width="2.073" height="2.075" style="fill:#62ff88;"/><rect x="101.682" y="41.446" width="2.074" height="2.074" style="fill:#62ff88;"/><rect x="101.703" y="49.477" width="2.075" height="2.073" style="fill:#62ff88;"/><rect x="107.37" y="36.145" width="2.075" height="2.075" style="fill:#62ff88;"/><path d="M101.71,53.478c0.376,0.246 0.752,0.489 1.117,0.749l0.958,0l0,-2.075l-2.075,0l0,1.326Z" style="fill:#62ff88;fill-rule:nonzero;"/><rect x="101.676" y="38.769" width="2.075" height="2.074" style="fill:#62ff88;"/><rect x="104.543" y="46.822" width="2.074" height="2.074" style="fill:#62ff88;"/><rect x="101.689" y="44.12" width="2.074" height="2.075" style="fill:#62ff88;"/><rect x="101.696" y="46.799" width="2.074" height="2.074" style="fill:#62ff88;"/><rect x="107.374" y="52.173" width="2.075" height="2.075" style="fill:#62ff88;"/><rect x="107.373" y="49.503" width="2.075" height="2.073" style="fill:#62ff88;"/><rect x="107.371" y="44.159" width="2.075" height="2.075" style="fill:#62ff88;"/><rect x="107.372" y="46.832" width="2.075" height="2.074" style="fill:#62ff88;"/><rect x="107.37" y="38.816" width="2.075" height="2.074" style="fill:#62ff88;"/><rect x="107.371" y="41.488" width="2.075" height="2.074" style="fill:#62ff88;"/><rect x="104.539" y="44.148" width="2.074" height="2.075" style="fill:#62ff88;"/><rect x="107.375" y="54.846" width="2.075" height="2.073" style="fill:#62ff88;"/><rect x="104.536" y="38.803" width="2.073" height="2.074" style="fill:#62ff88;"/><rect x="104.537" y="41.475" width="2.074" height="2.074" style="fill:#62ff88;"/><rect x="104.534" y="36.131" width="2.073" height="2.075" style="fill:#62ff88;"/><path d="M107.375,58.117c0.071,0.072 0.15,0.134 0.22,0.207c0.396,0.406 0.746,0.843 1.12,1.265l0.735,0l0,-2.073l-2.075,0l0,0.6Z" style="fill:#62ff88;fill-rule:nonzero;"/><rect x="104.533" y="33.459" width="2.074" height="2.074" style="fill:#62ff88;"/><rect x="118.659" y="78.881" width="2.075" height="2.074" style="fill:#62ff88;"/><rect x="121.48" y="57.516" width="2.074" height="2.073" style="fill:#62ff88;"/><rect x="121.48" y="62.856" width="2.074" height="2.075" style="fill:#62ff88;"/><rect x="121.48" y="60.186" width="2.074" height="2.074" style="fill:#62ff88;"/><rect x="121.48" y="65.527" width="2.074" height="2.075" style="fill:#62ff88;"/><rect x="121.48" y="73.539" width="2.074" height="2.075" style="fill:#62ff88;"/><rect x="121.48" y="70.868" width="2.074" height="2.075" style="fill:#62ff88;"/><rect x="121.48" y="68.197" width="2.074" height="2.075" style="fill:#62ff88;"/><rect x="121.48" y="49.504" width="2.074" height="2.073" style="fill:#62ff88;"/><rect x="121.48" y="44.162" width="2.074" height="2.075" style="fill:#62ff88;"/><path d="M121.48,42.087l0,1.479l1.593,0c-0.524,-0.503 -1.053,-0.999 -1.593,-1.479" style="fill:#62ff88;fill-rule:nonzero;"/><rect x="121.48" y="46.834" width="2.074" height="2.074" style="fill:#62ff88;"/><rect x="121.48" y="54.846" width="2.074" height="2.073" style="fill:#62ff88;"/><rect x="121.48" y="52.175" width="2.074" height="2.075" style="fill:#62ff88;"/><rect x="118.659" y="118.94" width="2.075" height="2.074" style="fill:#62ff88;"/><rect x="121.48" y="76.21" width="2.074" height="2.074" style="fill:#62ff88;"/><rect x="121.48" y="105.586" width="2.074" height="2.075" style="fill:#62ff88;"/><rect x="121.48" y="102.914" width="2.074" height="2.075" style="fill:#62ff88;"/><rect x="121.48" y="100.245" width="2.074" height="2.075" style="fill:#62ff88;"/><rect x="121.48" y="108.256" width="2.074" height="2.075" style="fill:#62ff88;"/><rect x="121.48" y="97.575" width="2.074" height="2.074" style="fill:#62ff88;"/><rect x="121.48" y="78.881" width="2.074" height="2.074" style="fill:#62ff88;"/><rect x="121.48" y="110.927" width="2.074" height="2.075" style="fill:#62ff88;"/><rect x="121.48" y="84.221" width="2.074" height="2.075" style="fill:#62ff88;"/><rect x="121.48" y="86.892" width="2.074" height="2.074" style="fill:#62ff88;"/><rect x="121.48" y="81.551" width="2.074" height="2.074" style="fill:#62ff88;"/><rect x="121.48" y="94.904" width="2.074" height="2.074" style="fill:#62ff88;"/><rect x="121.48" y="92.234" width="2.074" height="2.074" style="fill:#62ff88;"/><rect x="121.48" y="89.562" width="2.074" height="2.075" style="fill:#62ff88;"/><rect x="118.659" y="54.846" width="2.075" height="2.073" style="fill:#62ff88;"/><rect x="118.659" y="70.868" width="2.075" height="2.075" style="fill:#62ff88;"/><rect x="118.659" y="73.539" width="2.075" height="2.075" style="fill:#62ff88;"/><rect x="118.659" y="68.197" width="2.075" height="2.075" style="fill:#62ff88;"/><rect x="118.659" y="65.527" width="2.075" height="2.075" style="fill:#62ff88;"/><rect x="118.659" y="76.21" width="2.075" height="2.074" style="fill:#62ff88;"/><rect x="121.48" y="113.598" width="2.074" height="2.075" style="fill:#62ff88;"/><rect x="118.659" y="49.504" width="2.075" height="2.073" style="fill:#62ff88;"/><rect x="118.659" y="62.856" width="2.075" height="2.075" style="fill:#62ff88;"/><rect x="118.659" y="46.834" width="2.075" height="2.074" style="fill:#62ff88;"/><rect x="118.659" y="81.551" width="2.075" height="2.074" style="fill:#62ff88;"/><rect x="118.659" y="52.175" width="2.075" height="2.075" style="fill:#62ff88;"/><rect x="118.659" y="60.186" width="2.075" height="2.074" style="fill:#62ff88;"/><rect x="118.659" y="57.516" width="2.075" height="2.073" style="fill:#62ff88;"/><rect x="118.659" y="102.914" width="2.075" height="2.075" style="fill:#62ff88;"/><rect x="118.659" y="110.927" width="2.075" height="2.075" style="fill:#62ff88;"/><rect x="118.659" y="108.256" width="2.075" height="2.075" style="fill:#62ff88;"/><rect x="118.659" y="105.586" width="2.075" height="2.075" style="fill:#62ff88;"/><rect x="118.659" y="116.269" width="2.075" height="2.075" style="fill:#62ff88;"/><rect x="118.659" y="121.61" width="2.075" height="2.074" style="fill:#62ff88;"/><rect x="118.659" y="84.221" width="2.075" height="2.075" style="fill:#62ff88;"/><rect x="118.659" y="113.598" width="2.075" height="2.075" style="fill:#62ff88;"/><rect x="118.659" y="92.234" width="2.075" height="2.074" style="fill:#62ff88;"/><rect x="118.659" y="89.562" width="2.075" height="2.075" style="fill:#62ff88;"/><rect x="118.659" y="86.892" width="2.075" height="2.074" style="fill:#62ff88;"/><rect x="118.659" y="97.575" width="2.075" height="2.074" style="fill:#62ff88;"/><rect x="118.659" y="100.245" width="2.075" height="2.075" style="fill:#62ff88;"/><rect x="118.659" y="94.904" width="2.075" height="2.074" style="fill:#62ff88;"/><path d="M92.833,29.81l2.074,0l0,-1.246c-0.687,-0.142 -1.38,-0.267 -2.074,-0.382l0,1.629Z" style="fill:#62ff88;fill-rule:nonzero;"/><path d="M5.908,18.611l0,-0.15c-0.04,0.049 -0.08,0.099 -0.121,0.15l0.121,0Z" style="fill:#62ff88;fill-rule:nonzero;"/><rect x="36.838" y="100.23" width="2.073" height="2.074" style="fill:#62ff88;"/><rect x="36.808" y="97.531" width="2.073" height="2.075" style="fill:#62ff88;"/><rect x="36.855" y="110.927" width="2.074" height="2.075" style="fill:#62ff88;"/><rect x="34.05" y="73.636" width="2.073" height="2.074" style="fill:#62ff88;"/><rect x="36.75" y="94.807" width="2.073" height="2.074" style="fill:#62ff88;"/><rect x="36.855" y="105.585" width="2.073" height="2.075" style="fill:#62ff88;"/><rect x="36.851" y="102.91" width="2.073" height="2.075" style="fill:#62ff88;"/><rect x="36.65" y="92.046" width="2.074" height="2.074" style="fill:#62ff88;"/><rect x="35.919" y="83.362" width="2.074" height="2.075" style="fill:#62ff88;"/><rect x="34.846" y="77.037" width="2.073" height="2.073" style="fill:#62ff88;"/><rect x="35.459" y="80.27" width="2.073" height="2.074" style="fill:#62ff88;"/><rect x="36.492" y="89.228" width="2.073" height="2.075" style="fill:#62ff88;"/><rect x="36.256" y="86.343" width="2.073" height="2.074" style="fill:#62ff88;"/><rect x="36.855" y="108.256" width="2.074" height="2.075" style="fill:#62ff88;"/><rect x="35.857" y="70.036" width="2.075" height="2.075" style="fill:#62ff88;"/><rect x="34.594" y="66.205" width="2.075" height="2.075" style="fill:#62ff88;"/><rect x="33.04" y="62.108" width="2.075" height="2.075" style="fill:#62ff88;"/><rect x="37.665" y="77.036" width="2.075" height="2.073" style="fill:#62ff88;"/><rect x="31.154" y="57.708" width="2.075" height="2.075" style="fill:#62ff88;"/><rect x="36.869" y="73.634" width="2.075" height="2.074" style="fill:#62ff88;"/><rect x="28.893" y="52.963" width="2.075" height="2.075" style="fill:#62ff88;"/><rect x="19.382" y="36.226" width="2.075" height="2.073" style="fill:#62ff88;"/><rect x="15.129" y="29.654" width="2.075" height="2.075" style="fill:#62ff88;"/><rect x="10.245" y="22.502" width="2.075" height="2.073" style="fill:#62ff88;"/><rect x="26.211" y="47.832" width="2.075" height="2.074" style="fill:#62ff88;"/><rect x="23.058" y="42.27" width="2.075" height="2.073" style="fill:#62ff88;"/><path d="M7.456,24.512l0,0.092l2.073,0l0,-2.073l-0.596,0c-0.51,0.65 -1,1.312 -1.477,1.98" style="fill:#62ff88;fill-rule:nonzero;"/><rect x="32.071" y="77.08" width="2.074" height="2.073" style="fill:#62ff88;"/><rect x="33.682" y="89.238" width="2.074" height="2.075" style="fill:#62ff88;"/><rect x="33.451" y="86.357" width="2.074" height="2.074" style="fill:#62ff88;"/><rect x="33.123" y="83.385" width="2.074" height="2.075" style="fill:#62ff88;"/><rect x="33.836" y="92.052" width="2.074" height="2.074" style="fill:#62ff88;"/><rect x="33.989" y="97.534" width="2.074" height="2.074" style="fill:#62ff88;"/><rect x="33.933" y="94.812" width="2.074" height="2.073" style="fill:#62ff88;"/><rect x="29.069" y="66.313" width="2.074" height="2.075" style="fill:#62ff88;"/><rect x="34.018" y="100.23" width="2.074" height="2.075" style="fill:#62ff88;"/><rect x="27.552" y="62.25" width="2.074" height="2.075" style="fill:#62ff88;"/><rect x="32.672" y="80.301" width="2.074" height="2.074" style="fill:#62ff88;"/><rect x="30.304" y="70.117" width="2.074" height="2.075" style="fill:#62ff88;"/><rect x="38.279" y="80.268" width="2.075" height="2.075" style="fill:#62ff88;"/><rect x="31.294" y="73.695" width="2.074" height="2.074" style="fill:#62ff88;"/><rect x="30.223" y="62.113" width="2.074" height="2.075" style="fill:#62ff88;"/><rect x="20.251" y="42.283" width="2.073" height="2.073" style="fill:#62ff88;"/><rect x="34.03" y="102.91" width="2.074" height="2.075" style="fill:#62ff88;"/><rect x="23.401" y="47.843" width="2.073" height="2.074" style="fill:#62ff88;"/><rect x="26.081" y="52.971" width="2.073" height="2.075" style="fill:#62ff88;"/><rect x="25.715" y="57.893" width="2.074" height="2.075" style="fill:#62ff88;"/><rect x="31.777" y="66.209" width="2.073" height="2.075" style="fill:#62ff88;"/><rect x="28.34" y="57.714" width="2.073" height="2.075" style="fill:#62ff88;"/><rect x="34.034" y="105.586" width="2.074" height="2.075" style="fill:#62ff88;"/><rect x="34.035" y="108.256" width="2.074" height="2.075" style="fill:#62ff88;"/><rect x="16.579" y="36.244" width="2.073" height="2.073" style="fill:#62ff88;"/><path d="M12.444,32.537l0,-1.71c-0.381,0.563 -0.746,1.135 -1.106,1.71l1.106,0Z" style="fill:#62ff88;fill-rule:nonzero;"/><path d="M14.317,37.787l0,1.041l2.074,0l0,-2.074l-1.477,0c-0.207,0.341 -0.397,0.688 -0.597,1.033" style="fill:#62ff88;fill-rule:nonzero;"/><rect x="12.333" y="29.676" width="2.073" height="2.075" style="fill:#62ff88;"/><rect x="33.039" y="70.038" width="2.073" height="2.075" style="fill:#62ff88;"/><rect x="42.48" y="100.23" width="2.076" height="2.075" style="fill:#62ff88;"/><rect x="42.491" y="102.91" width="2.076" height="2.075" style="fill:#62ff88;"/><rect x="42.496" y="108.256" width="2.075" height="2.075" style="fill:#62ff88;"/><rect x="42.496" y="105.586" width="2.076" height="2.075" style="fill:#62ff88;"/><rect x="42.496" y="110.927" width="2.075" height="2.075" style="fill:#62ff88;"/><rect x="42.496" y="118.94" width="2.075" height="2.074" style="fill:#62ff88;"/><rect x="42.496" y="113.598" width="2.075" height="2.075" style="fill:#62ff88;"/><rect x="42.395" y="94.811" width="2.075" height="2.074" style="fill:#62ff88;"/><rect x="41.911" y="86.356" width="2.076" height="2.075" style="fill:#62ff88;"/><rect x="42.142" y="89.237" width="2.076" height="2.075" style="fill:#62ff88;"/><rect x="41.582" y="83.383" width="2.076" height="2.075" style="fill:#62ff88;"/><rect x="42.297" y="92.051" width="2.076" height="2.075" style="fill:#62ff88;"/><rect x="42.496" y="116.269" width="2.075" height="2.075" style="fill:#62ff88;"/><rect x="42.451" y="97.533" width="2.075" height="2.075" style="fill:#62ff88;"/><rect x="18.522" y="24.918" width="2.073" height="2.073" style="fill:#62ff88;"/><path d="M0.887,3.486l0,-0.823c-0.296,0.273 -0.595,0.543 -0.887,0.823l0.887,0Z" style="fill:#62ff88;fill-rule:nonzero;"/><rect x="35.242" y="53.61" width="2.073" height="2.075" style="fill:#62ff88;"/><rect x="32.766" y="48.67" width="2.073" height="2.074" style="fill:#62ff88;"/><rect x="29.882" y="43.354" width="2.073" height="2.073" style="fill:#62ff88;"/><rect x="40.554" y="66.497" width="2.073" height="2.075" style="fill:#62ff88;"/><rect x="39.099" y="62.491" width="2.073" height="2.075" style="fill:#62ff88;"/><rect x="37.341" y="58.207" width="2.073" height="2.075" style="fill:#62ff88;"/><rect x="8.793" y="10.65" width="2.073" height="2.075" style="fill:#62ff88;"/><path d="M2.899,8.426l0,1.482l2.076,0l0,-2.075l-1.5,0c-0.196,0.195 -0.383,0.395 -0.577,0.593" style="fill:#62ff88;fill-rule:nonzero;"/><rect x="13.833" y="17.947" width="2.073" height="2.074" style="fill:#62ff88;"/><rect x="26.558" y="37.633" width="2.073" height="2.073" style="fill:#62ff88;"/><rect x="41.13" y="80.298" width="2.076" height="2.075" style="fill:#62ff88;"/><rect x="22.772" y="31.489" width="2.073" height="2.075" style="fill:#62ff88;"/><rect x="39.675" y="110.927" width="2.075" height="2.075" style="fill:#62ff88;"/><rect x="38.74" y="83.362" width="2.075" height="2.075" style="fill:#62ff88;"/><rect x="39.675" y="108.256" width="2.075" height="2.075" style="fill:#62ff88;"/><rect x="39.675" y="105.585" width="2.075" height="2.075" style="fill:#62ff88;"/><rect x="39.671" y="102.91" width="2.075" height="2.075" style="fill:#62ff88;"/><path d="M2.366,10.103l0,-0.714c-0.225,0.237 -0.445,0.474 -0.664,0.714l0.664,0Z" style="fill:#62ff88;fill-rule:nonzero;"/><rect x="39.675" y="113.598" width="2.075" height="2.075" style="fill:#62ff88;"/><rect x="39.675" y="116.269" width="2.075" height="2.075" style="fill:#62ff88;"/><rect x="39.472" y="92.045" width="2.075" height="2.075" style="fill:#62ff88;"/><rect x="39.312" y="89.228" width="2.075" height="2.075" style="fill:#62ff88;"/><rect x="39.075" y="86.341" width="2.075" height="2.075" style="fill:#62ff88;"/><rect x="40.529" y="77.076" width="2.076" height="2.073" style="fill:#62ff88;"/><rect x="39.659" y="100.23" width="2.075" height="2.074" style="fill:#62ff88;"/><rect x="39.571" y="94.807" width="2.075" height="2.074" style="fill:#62ff88;"/><rect x="39.629" y="97.531" width="2.075" height="2.075" style="fill:#62ff88;"/><rect x="37.52" y="66.304" width="2.076" height="2.075" style="fill:#62ff88;"/><rect x="36" y="62.237" width="2.076" height="2.075" style="fill:#62ff88;"/><rect x="34.157" y="57.876" width="2.075" height="2.075" style="fill:#62ff88;"/><rect x="39.749" y="73.689" width="2.076" height="2.074" style="fill:#62ff88;"/><rect x="38.758" y="70.11" width="2.076" height="2.075" style="fill:#62ff88;"/><rect x="31.952" y="53.181" width="2.075" height="2.075" style="fill:#62ff88;"/><rect x="26.28" y="42.638" width="2.076" height="2.073" style="fill:#62ff88;"/><rect x="13.978" y="23.34" width="2.076" height="2.073" style="fill:#62ff88;"/><rect x="18.637" y="30.284" width="2.076" height="2.075" style="fill:#62ff88;"/><rect x="8.729" y="15.854" width="2.075" height="2.074" style="fill:#62ff88;"/><rect x="22.726" y="36.706" width="2.075" height="2.073" style="fill:#62ff88;"/><path d="M4.673,15.723l0,1.07l2.075,0l0,-2.074l-1.189,0c-0.296,0.334 -0.6,0.664 -0.886,1.003" style="fill:#62ff88;fill-rule:nonzero;"/><rect x="29.341" y="48.116" width="2.075" height="2.074" style="fill:#62ff88;"/><path d="M139.13,73.539l-0.725,0l0,2.075l1.061,0c-0.097,-0.696 -0.212,-1.387 -0.335,-2.075" style="fill:#62ff88;fill-rule:nonzero;"/><path d="M132.763,110.331l0.213,0c0.389,-0.683 0.76,-1.374 1.117,-2.075l-1.33,0l0,2.075Z" style="fill:#62ff88;fill-rule:nonzero;"/><path d="M135.583,99.648l2.013,0c0.022,-0.071 0.04,-0.145 0.062,-0.217l0,-1.857l-2.075,0l0,2.074Z" style="fill:#62ff88;fill-rule:nonzero;"/><path d="M124.302,121.013l0.741,0c0.455,-0.482 0.895,-0.972 1.333,-1.467l0,-0.607l-2.074,0l0,2.074Z" style="fill:#62ff88;fill-rule:nonzero;"/><path d="M132.763,107.66l1.638,0c0.145,-0.3 0.293,-0.598 0.435,-0.901l0,-1.173l-2.074,0l0,2.075Z" style="fill:#62ff88;fill-rule:nonzero;"/><path d="M129.942,113.001l1.411,0c0.22,-0.34 0.453,-0.674 0.665,-1.019l0,-1.056l-2.075,0l0,2.075Z" style="fill:#62ff88;fill-rule:nonzero;"/><path d="M127.12,118.344l0.306,0c0.568,-0.682 1.119,-1.373 1.65,-2.075l-1.956,0l0,2.075Z" style="fill:#62ff88;fill-rule:nonzero;"/><path d="M129.942,115.077c0.348,-0.489 0.692,-0.98 1.024,-1.478l-1.024,0l0,1.478Z" style="fill:#62ff88;fill-rule:nonzero;"/><path d="M135.583,102.32l1.112,0c0.25,-0.685 0.479,-1.38 0.7,-2.075l-1.812,0l0,2.075Z" style="fill:#62ff88;fill-rule:nonzero;"/><path d="M138.404,86.296l1.519,0c0.036,-0.688 0.047,-1.381 0.057,-2.075l-1.576,0l0,2.075Z" style="fill:#62ff88;fill-rule:nonzero;"/><path d="M139.811,78.88l-1.407,0l0,2.074l1.538,0c-0.028,-0.693 -0.078,-1.385 -0.132,-2.074" style="fill:#62ff88;fill-rule:nonzero;"/><path d="M138.404,96.693c0.147,-0.593 0.276,-1.191 0.401,-1.789l-0.401,0l0,1.789Z" style="fill:#62ff88;fill-rule:nonzero;"/><path d="M138.404,88.966l1.323,0c0.068,-0.687 0.111,-1.38 0.152,-2.074l-1.475,0l0,2.074Z" style="fill:#62ff88;fill-rule:nonzero;"/><path d="M138.404,94.307l0.536,0c0.136,-0.687 0.247,-1.38 0.356,-2.074l-0.892,0l0,2.074Z" style="fill:#62ff88;fill-rule:nonzero;"/><path d="M138.404,91.636l0.998,0c0.099,-0.687 0.176,-1.38 0.252,-2.075l-1.25,0l0,2.075Z" style="fill:#62ff88;fill-rule:nonzero;"/><path d="M98.913,136.81c0.696,-0.195 1.388,-0.404 2.075,-0.626l0,-1.221l-2.075,0l0,1.847Z" style="fill:#62ff88;fill-rule:nonzero;"/><path d="M139.537,76.21l-1.133,0l0,2.074l1.363,0c-0.06,-0.694 -0.142,-1.386 -0.23,-2.074" style="fill:#62ff88;fill-rule:nonzero;"/><path d="M101.733,135.941c0.697,-0.235 1.387,-0.488 2.074,-0.75l0,-0.228l-2.074,0l0,0.978Z" style="fill:#62ff88;fill-rule:nonzero;"/><path d="M124.302,121.77c0.053,-0.054 0.105,-0.107 0.157,-0.16l-0.157,0l0,0.16Z" style="fill:#62ff88;fill-rule:nonzero;"/><path d="M93.272,138.084c0.694,-0.118 1.387,-0.249 2.074,-0.395l0,-0.056l-2.074,0l0,0.45Z" style="fill:#62ff88;fill-rule:nonzero;"/><path d="M96.092,137.037l1.992,0c0.028,-0.007 0.057,-0.016 0.084,-0.022l0,-2.052l-2.075,0l0,2.074Z" style="fill:#62ff88;fill-rule:nonzero;"/><path d="M107.375,133.699c0.699,-0.323 1.391,-0.668 2.075,-1.019l0,-0.388l-2.075,0l0,1.407Z" style="fill:#62ff88;fill-rule:nonzero;"/><path d="M104.555,134.366l1.294,0c0.261,-0.111 0.521,-0.226 0.779,-0.341l0,-1.733l-2.074,0l0,2.074Z" style="fill:#62ff88;fill-rule:nonzero;"/><path d="M118.659,126.354l0.571,0c0.509,-0.407 1.007,-0.834 1.503,-1.26l0,-0.813l-2.075,0l0,2.074Z" style="fill:#62ff88;fill-rule:nonzero;"/><path d="M115.838,128.856c0.701,-0.482 1.393,-0.981 2.075,-1.495l0,-0.41l-2.075,0l0,1.906Z" style="fill:#62ff88;fill-rule:nonzero;"/><path d="M121.48,124.457c0.064,-0.057 0.127,-0.118 0.191,-0.176l-0.191,0l0,0.176Z" style="fill:#62ff88;fill-rule:nonzero;"/><path d="M113.019,130.685c0.573,-0.348 1.146,-0.695 1.71,-1.063l-1.71,0l0,1.063Z" style="fill:#62ff88;fill-rule:nonzero;"/><path d="M110.197,132.298c0.003,-0.003 0.007,-0.004 0.009,-0.005l-0.009,0l0,0.005Z" style="fill:#62ff88;fill-rule:nonzero;"/><path d="M110.197,131.695l1.081,0c0.33,-0.183 0.666,-0.361 0.994,-0.552l0,-1.521l-2.075,0l0,2.073Z" style="fill:#62ff88;fill-rule:nonzero;"/><rect x="25.058" y="70.479" width="2.075" height="2.075" style="fill:#62ff88;"/><path d="M25.251,79.459l0.766,0l0,-2.074l-0.638,0c-0.051,0.69 -0.1,1.38 -0.128,2.074" style="fill:#62ff88;fill-rule:nonzero;"/><path d="M26.155,85.613l0.746,0l0,-2.075l-0.8,0c0.01,0.695 0.02,1.388 0.054,2.075" style="fill:#62ff88;fill-rule:nonzero;"/><path d="M90.451,138.5c0.693,-0.085 1.385,-0.179 2.073,-0.288l0,-0.577l-2.073,0l0,0.866Z" style="fill:#62ff88;fill-rule:nonzero;"/><path d="M24.758,76.18l0.595,0l0,-2.074l-0.37,0c-0.085,0.688 -0.164,1.378 -0.225,2.074" style="fill:#62ff88;fill-rule:nonzero;"/><rect x="23.951" y="66.793" width="2.075" height="2.075" style="fill:#62ff88;"/><path d="M26.62,88.535l0.556,0l0,-2.075l-0.705,0c0.042,0.694 0.083,1.389 0.149,2.075" style="fill:#62ff88;fill-rule:nonzero;"/><path d="M24.528,72.753l0,-1.916c-0.108,0.635 -0.213,1.273 -0.299,1.916l0.299,0Z" style="fill:#62ff88;fill-rule:nonzero;"/><path d="M27.129,91.378l0.236,0l0,-2.074l-0.485,0c0.073,0.694 0.151,1.388 0.249,2.074" style="fill:#62ff88;fill-rule:nonzero;"/><path d="M30.463,103.334l0,-0.424l-0.165,0c0.054,0.143 0.111,0.283 0.165,0.424" style="fill:#62ff88;fill-rule:nonzero;"/><path d="M30.058,102.308l0.398,0l0,-2.075l-1.09,0c0.22,0.695 0.444,1.389 0.692,2.075" style="fill:#62ff88;fill-rule:nonzero;"/><path d="M29.145,99.615l1.287,0l0,-2.075l-1.858,0c0.178,0.696 0.365,1.389 0.57,2.075" style="fill:#62ff88;fill-rule:nonzero;"/><path d="M27.465,92.871l0,-0.804l-0.138,0c0.043,0.268 0.091,0.535 0.138,0.804" style="fill:#62ff88;fill-rule:nonzero;"/><path d="M28.309,96.646c0.02,0.084 0.036,0.17 0.056,0.253l2.02,0l0,-2.073l-2.075,0l0,1.819Z" style="fill:#62ff88;fill-rule:nonzero;"/><rect x="25.946" y="73.965" width="2.075" height="2.074" style="fill:#62ff88;"/><path d="M21.544,60.726l1.43,0l0,-2.075l-0.775,0c-0.232,0.687 -0.452,1.378 -0.655,2.075" style="fill:#62ff88;fill-rule:nonzero;"/><path d="M25.702,82.32c0,0.091 0.006,0.184 0.006,0.275l0.815,0l0,-2.073l-0.779,0c-0.018,0.597 -0.043,1.196 -0.043,1.798" style="fill:#62ff88;fill-rule:nonzero;"/><path d="M21.111,56.346l0,-1.561c-0.198,0.518 -0.396,1.037 -0.578,1.561l0.578,0Z" style="fill:#62ff88;fill-rule:nonzero;"/><path d="M22.597,64.691l0,0.263l2.075,0l0,-2.075l-1.595,0c-0.168,0.603 -0.334,1.205 -0.481,1.812" style="fill:#62ff88;fill-rule:nonzero;"/><path d="M138.404,70.052l0,0.22l0.05,0c-0.017,-0.073 -0.03,-0.148 -0.05,-0.22" style="fill:#62ff88;fill-rule:nonzero;"/><path d="M138.589,70.869l-0.185,0l0,2.075l0.624,0c-0.131,-0.696 -0.28,-1.387 -0.439,-2.075" style="fill:#62ff88;fill-rule:nonzero;"/><rect x="27.59" y="83.484" width="2.075" height="2.075" style="fill:#62ff88;"/><rect x="27.186" y="80.443" width="2.075" height="2.075" style="fill:#62ff88;"/><rect x="41.74" y="70.255" width="2.073" height="2.075" style="fill:#62ff88;"/><rect x="26.646" y="77.278" width="2.075" height="2.073" style="fill:#62ff88;"/><rect x="28.224" y="92.079" width="2.075" height="2.074" style="fill:#62ff88;"/><rect x="27.883" y="86.425" width="2.075" height="2.074" style="fill:#62ff88;"/><rect x="28.088" y="89.282" width="2.075" height="2.074" style="fill:#62ff88;"/><path d="M38.929,117.844l0,-1.575l-1.252,0c0.403,0.533 0.827,1.054 1.252,1.575" style="fill:#62ff88;fill-rule:nonzero;"/><rect x="23.265" y="58.234" width="2.074" height="2.075" style="fill:#62ff88;"/><rect x="28.594" y="73.807" width="2.074" height="2.074" style="fill:#62ff88;"/><rect x="31.209" y="102.91" width="2.074" height="2.075" style="fill:#62ff88;"/><rect x="21.174" y="53.646" width="2.074" height="2.075" style="fill:#62ff88;"/><rect x="25.016" y="62.512" width="2.074" height="2.075" style="fill:#62ff88;"/><rect x="27.646" y="70.267" width="2.074" height="2.075" style="fill:#62ff88;"/><path d="M87.631,138.77c0.693,-0.05 1.385,-0.107 2.073,-0.181l0,-0.955l-2.073,0l0,1.137Z" style="fill:#62ff88;fill-rule:nonzero;"/><path d="M32.355,107.66l0.932,0l0,-2.075l-1.893,0c0.309,0.698 0.626,1.391 0.961,2.075" style="fill:#62ff88;fill-rule:nonzero;"/><path d="M36.855,115.137c0.128,0.179 0.258,0.358 0.39,0.536l1.683,0l0,-2.075l-2.074,0l0,1.539Z" style="fill:#62ff88;fill-rule:nonzero;"/><rect x="23.515" y="53.204" width="2.074" height="2.075" style="fill:#62ff88;"/><path d="M33.287,109.47l0,-1.214l-0.624,0c0.206,0.406 0.407,0.814 0.624,1.214" style="fill:#62ff88;fill-rule:nonzero;"/><path d="M41.714,121.013l0.037,0l0,-2.074l-1.913,0c0.605,0.703 1.231,1.395 1.876,2.074" style="fill:#62ff88;fill-rule:nonzero;"/><path d="M35.398,113.001l0.71,0l0,-2.075l-1.987,0c0.409,0.7 0.834,1.392 1.277,2.075" style="fill:#62ff88;fill-rule:nonzero;"/><path d="M36.108,114.092l0,-0.493l-0.321,0c0.11,0.163 0.211,0.33 0.321,0.493" style="fill:#62ff88;fill-rule:nonzero;"/><rect x="31.119" y="94.817" width="2.074" height="2.074" style="fill:#62ff88;"/><path d="M16.558,45.352l1.211,0l0,-2.073l-0.165,0c-0.362,0.684 -0.717,1.373 -1.047,2.073" style="fill:#62ff88;fill-rule:nonzero;"/><path d="M18.71,50.043l0,0.746l2.074,0l0,-2.074l-1.479,0c-0.204,0.441 -0.404,0.882 -0.595,1.328" style="fill:#62ff88;fill-rule:nonzero;"/><rect x="31.198" y="100.231" width="2.074" height="2.075" style="fill:#62ff88;"/><rect x="31.172" y="97.538" width="2.074" height="2.074" style="fill:#62ff88;"/><rect x="20.911" y="48.145" width="2.074" height="2.074" style="fill:#62ff88;"/><rect x="17.859" y="42.676" width="2.074" height="2.073" style="fill:#62ff88;"/><rect x="29.914" y="80.359" width="2.074" height="2.075" style="fill:#62ff88;"/><rect x="30.346" y="83.426" width="2.074" height="2.075" style="fill:#62ff88;"/><rect x="30.661" y="86.385" width="2.074" height="2.074" style="fill:#62ff88;"/><rect x="29.34" y="77.161" width="2.074" height="2.074" style="fill:#62ff88;"/><rect x="31.027" y="92.062" width="2.074" height="2.075" style="fill:#62ff88;"/><rect x="30.88" y="89.257" width="2.074" height="2.074" style="fill:#62ff88;"/><path d="M42.496,121.813c0.281,0.285 0.55,0.576 0.838,0.854c0.355,0.349 0.725,0.68 1.088,1.016l0.15,0l0,-2.073l-2.075,0l0,0.202Z" style="fill:#62ff88;fill-rule:nonzero;"/><rect x="26.464" y="66.512" width="2.074" height="2.075" style="fill:#62ff88;"/><rect x="62.243" y="132.293" width="2.073" height="2.074" style="fill:#62ff88;"/><path d="M64.316,135.711l0,-0.747l-1.979,0c0.658,0.258 1.314,0.515 1.979,0.747" style="fill:#62ff88;fill-rule:nonzero;"/><path d="M65.062,135.953c0.689,0.232 1.38,0.457 2.076,0.662l0,-1.652l-2.076,0l0,0.99Z" style="fill:#62ff88;fill-rule:nonzero;"/><path d="M67.884,136.817c0.272,0.075 0.541,0.15 0.811,0.219l1.263,0l0,-2.074l-2.074,0l0,1.854Z" style="fill:#62ff88;fill-rule:nonzero;"/><rect x="62.243" y="113.598" width="2.073" height="2.075" style="fill:#62ff88;"/><rect x="62.243" y="116.269" width="2.073" height="2.075" style="fill:#62ff88;"/><path d="M79.168,138.765c0.691,0.051 1.38,0.091 2.075,0.119l0,-1.251l-2.075,0l0,1.131Z" style="fill:#62ff88;fill-rule:nonzero;"/><rect x="62.243" y="118.94" width="2.073" height="2.074" style="fill:#62ff88;"/><path d="M81.989,138.901c0.486,0.012 0.97,0.034 1.457,0.034c0.207,0 0.41,-0.012 0.617,-0.014l0,-1.287l-2.075,0l0,1.267Z" style="fill:#62ff88;fill-rule:nonzero;"/><path d="M84.809,138.903c0.693,-0.016 1.385,-0.039 2.074,-0.078l0,-1.191l-2.074,0l0,1.269Z" style="fill:#62ff88;fill-rule:nonzero;"/><path d="M73.527,138.081c0.689,0.118 1.379,0.23 2.073,0.323l0,-0.771l-2.073,0l0,0.448Z" style="fill:#62ff88;fill-rule:nonzero;"/><path d="M76.346,138.494c0.689,0.083 1.38,0.16 2.075,0.219l0,-1.078l-2.075,0l0,0.86Z" style="fill:#62ff88;fill-rule:nonzero;"/><path d="M72.779,137.955l0,-0.321l-1.578,0c0.524,0.112 1.05,0.223 1.578,0.321" style="fill:#62ff88;fill-rule:nonzero;"/><rect x="62.243" y="124.281" width="2.073" height="2.074" style="fill:#62ff88;"/><path d="M53.036,130.286l0,-0.665l-1.069,0c0.351,0.23 0.713,0.442 1.069,0.665" style="fill:#62ff88;fill-rule:nonzero;"/><path d="M59.423,133.731c0.481,0.22 0.968,0.428 1.459,0.635l0.612,0l0,-2.073l-2.071,0l0,1.438Z" style="fill:#62ff88;fill-rule:nonzero;"/><path d="M56.601,132.35c0.683,0.359 1.377,0.697 2.075,1.029l0,-1.086l-2.075,0l0,0.057Z" style="fill:#62ff88;fill-rule:nonzero;"/><rect x="62.243" y="121.61" width="2.073" height="2.074" style="fill:#62ff88;"/><path d="M50.211,128.411l0,-1.46l-1.959,0c0.644,0.5 1.295,0.988 1.959,1.46" style="fill:#62ff88;fill-rule:nonzero;"/><path d="M50.96,128.93c0.045,0.031 0.093,0.064 0.139,0.095l1.937,0l0,-2.073l-2.076,0l0,1.978Z" style="fill:#62ff88;fill-rule:nonzero;"/><path d="M53.779,130.75c0.543,0.326 1.092,0.638 1.645,0.945l0.43,0l0,-2.073l-2.075,0l0,1.128Z" style="fill:#62ff88;fill-rule:nonzero;"/><rect x="62.243" y="126.951" width="2.073" height="2.074" style="fill:#62ff88;"/><rect x="62.243" y="129.621" width="2.073" height="2.073" style="fill:#62ff88;"/><path d="M45.319,124.523c0.676,0.604 1.368,1.192 2.073,1.761l0,-2.003l-2.073,0l0,0.242Z" style="fill:#62ff88;fill-rule:nonzero;"/><rect x="59.424" y="110.927" width="2.071" height="2.075" style="fill:#62ff88;"/><path d="M62.242,113.001l2.073,0l0,-0.401c-0.712,-0.491 -1.393,-1.035 -2.073,-1.585l0,1.987Z" style="fill:#62ff88;fill-rule:nonzero;"/><path d="M59.423,108.48l0,1.851l1.985,0c-0.68,-0.587 -1.342,-1.204 -1.985,-1.851" style="fill:#62ff88;fill-rule:nonzero;"/><path d="M14.745,4.999l2.076,0l0,-1.926c-0.701,0.437 -1.394,0.889 -2.076,1.357l0,0.57Z" style="fill:#62ff88;fill-rule:nonzero;"/><path d="M101.674,30.755l0,2.075l2.074,0l0,-1.481c-0.543,-0.203 -1.09,-0.408 -1.642,-0.595l-0.432,0Z" style="fill:#62ff88;fill-rule:nonzero;"/><path d="M98.773,29.693l0,0.392l1.39,0c-0.462,-0.139 -0.926,-0.265 -1.39,-0.392" style="fill:#62ff88;fill-rule:nonzero;"/><path d="M95.844,29.985l2.075,0l0,-0.591c-0.687,-0.177 -1.38,-0.341 -2.075,-0.493l0,1.084Z" style="fill:#62ff88;fill-rule:nonzero;"/><path d="M89.727,29.549l2.074,0l0,-1.753c-0.687,-0.105 -1.38,-0.195 -2.074,-0.276l0,2.029Z" style="fill:#62ff88;fill-rule:nonzero;"/><path d="M107.37,33.474l0,2.074l2.075,0l0,-1.675c-0.27,-0.136 -0.541,-0.267 -0.812,-0.399l-1.264,0Z" style="fill:#62ff88;fill-rule:nonzero;"/><path d="M104.534,31.664l0,1.2l2.073,0l0,-0.334c-0.514,-0.225 -1.025,-0.458 -1.547,-0.668c-0.174,-0.071 -0.352,-0.129 -0.526,-0.198" style="fill:#62ff88;fill-rule:nonzero;"/><path d="M107.365,32.863l0,0.012l0.028,0c-0.01,-0.004 -0.018,-0.008 -0.028,-0.012" style="fill:#62ff88;fill-rule:nonzero;"/><path d="M54.751,18.848l0,-0.188c-0.213,0.061 -0.421,0.125 -0.631,0.188l0.631,0Z" style="fill:#62ff88;fill-rule:nonzero;"/><path d="M110.195,35.553l2.075,0l0,-0.15c-0.684,-0.399 -1.376,-0.782 -2.075,-1.15l0,1.299Z" style="fill:#62ff88;fill-rule:nonzero;"/><path d="M57.537,20.72l2.074,0l0,-0.919c-0.695,0.162 -1.386,0.344 -2.074,0.532l0,0.387Z" style="fill:#62ff88;fill-rule:nonzero;"/><path d="M71.734,23.959l0,2.023l2.075,0l0,-2.075l-1.63,0c-0.149,0.017 -0.298,0.035 -0.444,0.052" style="fill:#62ff88;fill-rule:nonzero;"/><path d="M45.541,17.561l2.073,0l0,-1.974c-0.697,0.24 -1.386,0.505 -2.073,0.772l0,1.202Z" style="fill:#62ff88;fill-rule:nonzero;"/><path d="M67.387,24.58l2.072,0l0,-1.935c-0.694,0.09 -1.383,0.199 -2.072,0.314l0,1.622Z" style="fill:#62ff88;fill-rule:nonzero;"/><path d="M62.672,22.842l2.073,0l0,-1.499c-0.695,0.125 -1.384,0.27 -2.073,0.42l0,1.079Z" style="fill:#62ff88;fill-rule:nonzero;"/><rect x="115.838" y="62.856" width="2.075" height="2.075" style="fill:#62ff88;"/><rect x="115.838" y="52.175" width="2.075" height="2.075" style="fill:#62ff88;"/><rect x="115.838" y="54.846" width="2.075" height="2.073" style="fill:#62ff88;"/><rect x="115.838" y="60.186" width="2.075" height="2.074" style="fill:#62ff88;"/><rect x="115.838" y="57.516" width="2.075" height="2.073" style="fill:#62ff88;"/><path d="M113.019,36.15l0,2.075l2.072,0l0,-1.062c-0.525,-0.35 -1.06,-0.683 -1.597,-1.013l-0.475,0Z" style="fill:#62ff88;fill-rule:nonzero;"/><rect x="115.838" y="65.527" width="2.075" height="2.075" style="fill:#62ff88;"/><path d="M52.985,46.351l0,0.702c0.302,-0.243 0.613,-0.47 0.921,-0.702l-0.921,0Z" style="fill:#62ff88;fill-rule:nonzero;"/><path d="M115.838,38.821l0,2.074l2.075,0l0,-1.721c-0.155,-0.116 -0.307,-0.238 -0.463,-0.353l-1.612,0Z" style="fill:#62ff88;fill-rule:nonzero;"/><rect x="115.838" y="49.504" width="2.075" height="2.073" style="fill:#62ff88;"/><path d="M115.838,37.679l0,0.546l0.793,0c-0.264,-0.186 -0.529,-0.365 -0.793,-0.546" style="fill:#62ff88;fill-rule:nonzero;"/><rect x="115.838" y="41.492" width="2.075" height="2.074" style="fill:#62ff88;"/><rect x="115.838" y="44.162" width="2.075" height="2.075" style="fill:#62ff88;"/><rect x="115.838" y="46.834" width="2.075" height="2.074" style="fill:#62ff88;"/><path d="M47.659,55.726l-1.65,0l0,2.075l0.321,0c0.421,-0.705 0.858,-1.4 1.329,-2.075" style="fill:#62ff88;fill-rule:nonzero;"/><path d="M49.369,89.281l-1.538,0l0,2.074l1.965,0c-0.159,-0.685 -0.307,-1.376 -0.427,-2.074" style="fill:#62ff88;fill-rule:nonzero;"/><rect x="48.102" y="97.54" width="2.073" height="2.075" style="fill:#62ff88;"/><rect x="47.968" y="92.077" width="2.073" height="2.075" style="fill:#62ff88;"/><rect x="48.053" y="94.826" width="2.073" height="2.074" style="fill:#62ff88;"/><rect x="48.136" y="102.912" width="2.073" height="2.075" style="fill:#62ff88;"/><rect x="48.126" y="100.233" width="2.073" height="2.075" style="fill:#62ff88;"/><rect x="34.001" y="20.758" width="2.075" height="2.074" style="fill:#62ff88;"/><rect x="48.138" y="105.586" width="2.073" height="2.075" style="fill:#62ff88;"/><rect x="35.897" y="25.167" width="2.075" height="2.075" style="fill:#62ff88;"/><rect x="115.838" y="68.197" width="2.075" height="2.075" style="fill:#62ff88;"/><rect x="38.022" y="29.789" width="2.075" height="2.074" style="fill:#62ff88;"/><rect x="32.487" y="16.698" width="2.075" height="2.074" style="fill:#62ff88;"/><rect x="31.504" y="13.124" width="2.075" height="2.075" style="fill:#62ff88;"/><rect x="48.138" y="124.281" width="2.074" height="2.074" style="fill:#62ff88;"/><rect x="59.424" y="113.598" width="2.071" height="2.075" style="fill:#62ff88;"/><rect x="48.138" y="108.256" width="2.074" height="2.075" style="fill:#62ff88;"/><rect x="59.424" y="116.269" width="2.071" height="2.075" style="fill:#62ff88;"/><rect x="59.424" y="118.94" width="2.071" height="2.074" style="fill:#62ff88;"/><rect x="59.424" y="124.281" width="2.071" height="2.074" style="fill:#62ff88;"/><rect x="59.424" y="129.621" width="2.071" height="2.073" style="fill:#62ff88;"/><rect x="59.424" y="121.61" width="2.071" height="2.074" style="fill:#62ff88;"/><rect x="48.138" y="113.598" width="2.074" height="2.075" style="fill:#62ff88;"/><rect x="48.138" y="121.61" width="2.074" height="2.074" style="fill:#62ff88;"/><rect x="48.138" y="116.269" width="2.074" height="2.075" style="fill:#62ff88;"/><rect x="48.138" y="110.927" width="2.074" height="2.075" style="fill:#62ff88;"/><rect x="48.138" y="118.94" width="2.074" height="2.074" style="fill:#62ff88;"/><rect x="59.424" y="126.951" width="2.071" height="2.074" style="fill:#62ff88;"/><rect x="107.375" y="124.281" width="2.075" height="2.074" style="fill:#62ff88;"/><rect x="110.198" y="110.927" width="2.075" height="2.075" style="fill:#62ff88;"/><rect x="110.198" y="108.256" width="2.075" height="2.075" style="fill:#62ff88;"/><rect x="110.198" y="105.586" width="2.075" height="2.075" style="fill:#62ff88;"/><path d="M110.369,104.989l1.903,0l0,-2.075l-0.393,0c-0.468,0.713 -0.988,1.396 -1.51,2.075" style="fill:#62ff88;fill-rule:nonzero;"/><rect x="110.198" y="118.94" width="2.075" height="2.074" style="fill:#62ff88;"/><rect x="110.198" y="116.269" width="2.075" height="2.075" style="fill:#62ff88;"/><rect x="110.198" y="121.61" width="2.075" height="2.074" style="fill:#62ff88;"/><rect x="110.198" y="113.598" width="2.075" height="2.075" style="fill:#62ff88;"/><rect x="113.019" y="118.94" width="2.072" height="2.074" style="fill:#62ff88;"/><rect x="113.019" y="116.269" width="2.072" height="2.075" style="fill:#62ff88;"/><rect x="113.019" y="121.61" width="2.072" height="2.074" style="fill:#62ff88;"/><rect x="113.019" y="124.281" width="2.072" height="2.074" style="fill:#62ff88;"/><path d="M112.272,102.32l0,-0.057c-0.013,0.018 -0.023,0.038 -0.035,0.057l0.035,0Z" style="fill:#62ff88;fill-rule:nonzero;"/><rect x="113.019" y="126.951" width="2.072" height="2.074" style="fill:#62ff88;"/><rect x="107.375" y="126.951" width="2.075" height="2.074" style="fill:#62ff88;"/><rect x="40.241" y="34.495" width="2.075" height="2.073" style="fill:#62ff88;"/><rect x="107.375" y="118.94" width="2.075" height="2.074" style="fill:#62ff88;"/><rect x="107.375" y="121.61" width="2.075" height="2.074" style="fill:#62ff88;"/><rect x="113.019" y="113.598" width="2.072" height="2.075" style="fill:#62ff88;"/><rect x="107.375" y="129.621" width="2.075" height="2.073" style="fill:#62ff88;"/><path d="M106.628,110.331l0,-1.204c-0.43,0.408 -0.859,0.824 -1.306,1.204l1.306,0Z" style="fill:#62ff88;fill-rule:nonzero;"/><rect x="107.375" y="113.598" width="2.075" height="2.075" style="fill:#62ff88;"/><path d="M109.45,107.66l0,-1.516c-0.431,0.516 -0.883,1.022 -1.344,1.516l1.344,0Z" style="fill:#62ff88;fill-rule:nonzero;"/><path d="M107.375,108.438l0,1.893l2.075,0l0,-2.075l-1.878,0c-0.065,0.064 -0.133,0.118 -0.198,0.182" style="fill:#62ff88;fill-rule:nonzero;"/><rect x="110.198" y="126.951" width="2.075" height="2.074" style="fill:#62ff88;"/><rect x="107.375" y="116.269" width="2.075" height="2.075" style="fill:#62ff88;"/><rect x="110.198" y="124.281" width="2.075" height="2.074" style="fill:#62ff88;"/><rect x="107.375" y="110.927" width="2.075" height="2.075" style="fill:#62ff88;"/><rect x="113.019" y="105.586" width="2.072" height="2.075" style="fill:#62ff88;"/><rect x="115.838" y="97.575" width="2.075" height="2.074" style="fill:#62ff88;"/><rect x="115.838" y="94.904" width="2.075" height="2.074" style="fill:#62ff88;"/><path d="M116.7,91.636l1.213,0l0,-2.075l-0.776,0c-0.123,0.698 -0.276,1.387 -0.437,2.075" style="fill:#62ff88;fill-rule:nonzero;"/><path d="M115.97,94.307l1.942,0l0,-2.074l-1.359,0c-0.177,0.696 -0.365,1.389 -0.584,2.074" style="fill:#62ff88;fill-rule:nonzero;"/><rect x="115.838" y="102.914" width="2.075" height="2.075" style="fill:#62ff88;"/><rect x="115.838" y="100.245" width="2.075" height="2.075" style="fill:#62ff88;"/><path d="M117.69,83.349c0,0.093 -0.012,0.184 -0.014,0.275l0.237,0l0,-2.073l-0.306,0c0.027,0.598 0.083,1.192 0.083,1.798" style="fill:#62ff88;fill-rule:nonzero;"/><path d="M117.307,78.283l0.606,0l0,-2.074l-0.919,0c0.133,0.684 0.219,1.38 0.313,2.074" style="fill:#62ff88;fill-rule:nonzero;"/><path d="M116.849,75.614l1.064,0l0,-2.075l-1.567,0c0.192,0.684 0.354,1.378 0.503,2.075" style="fill:#62ff88;fill-rule:nonzero;"/><path d="M117.221,88.966l0.692,0l0,-2.074l-0.395,0c-0.067,0.698 -0.191,1.385 -0.298,2.074" style="fill:#62ff88;fill-rule:nonzero;"/><path d="M117.579,80.954l0.334,0l0,-2.074l-0.522,0c0.084,0.686 0.144,1.378 0.187,2.074" style="fill:#62ff88;fill-rule:nonzero;"/><rect x="115.838" y="105.586" width="2.075" height="2.075" style="fill:#62ff88;"/><path d="M117.552,86.296l0.361,0l0,-2.075l-0.263,0c-0.017,0.695 -0.043,1.388 -0.098,2.075" style="fill:#62ff88;fill-rule:nonzero;"/><rect x="115.838" y="121.61" width="2.075" height="2.074" style="fill:#62ff88;"/><rect x="113.019" y="102.914" width="2.072" height="2.075" style="fill:#62ff88;"/><path d="M113.019,100.991l0,1.328l2.072,0l0,-2.074l-1.632,0c-0.138,0.253 -0.297,0.496 -0.44,0.746" style="fill:#62ff88;fill-rule:nonzero;"/><path d="M113.775,99.648l1.316,0l0,-2.074l-0.353,0c-0.304,0.701 -0.616,1.397 -0.963,2.074" style="fill:#62ff88;fill-rule:nonzero;"/><rect x="113.019" y="108.256" width="2.072" height="2.075" style="fill:#62ff88;"/><path d="M115.017,96.978l0.074,0l0,-0.163c-0.003,0.002 -0.003,0.004 -0.004,0.009c-0.022,0.052 -0.049,0.101 -0.07,0.154" style="fill:#62ff88;fill-rule:nonzero;"/><path d="M115.838,71.926c0.114,0.341 0.253,0.672 0.356,1.016l1.719,0l0,-2.074l-2.075,0l0,1.057Z" style="fill:#62ff88;fill-rule:nonzero;"/><rect x="115.838" y="108.256" width="2.075" height="2.075" style="fill:#62ff88;"/><rect x="115.838" y="113.598" width="2.075" height="2.075" style="fill:#62ff88;"/><rect x="115.838" y="110.927" width="2.075" height="2.075" style="fill:#62ff88;"/><rect x="115.838" y="124.281" width="2.075" height="2.074" style="fill:#62ff88;"/><rect x="115.838" y="116.269" width="2.075" height="2.075" style="fill:#62ff88;"/><rect x="115.838" y="118.94" width="2.075" height="2.074" style="fill:#62ff88;"/><rect x="113.019" y="110.927" width="2.072" height="2.075" style="fill:#62ff88;"/><rect x="44.448" y="83.423" width="2.074" height="2.075" style="fill:#62ff88;"/><rect x="56.601" y="108.256" width="2.075" height="2.075" style="fill:#62ff88;"/><path d="M49.959,48.833l0,0.563c0.196,-0.197 0.406,-0.372 0.606,-0.563l-0.606,0Z" style="fill:#62ff88;fill-rule:nonzero;"/><rect x="56.601" y="110.927" width="2.075" height="2.075" style="fill:#62ff88;"/><rect x="56.601" y="121.61" width="2.075" height="2.074" style="fill:#62ff88;"/><rect x="56.601" y="118.94" width="2.075" height="2.074" style="fill:#62ff88;"/><rect x="56.601" y="113.598" width="2.075" height="2.075" style="fill:#62ff88;"/><rect x="56.601" y="116.269" width="2.075" height="2.075" style="fill:#62ff88;"/><path d="M56.821,105.586l-0.219,0l0,2.075l2.049,0c-0.632,-0.678 -1.256,-1.359 -1.83,-2.075" style="fill:#62ff88;fill-rule:nonzero;"/><rect x="40.738" y="24.35" width="2.072" height="2.074" style="fill:#62ff88;"/><path d="M49.176,47.517l1.245,0c0.278,-0.254 0.542,-0.526 0.827,-0.769l0,-1.304l-2.072,0l0,2.073Z" style="fill:#62ff88;fill-rule:nonzero;"/><rect x="42.204" y="28.365" width="2.072" height="2.075" style="fill:#62ff88;"/><rect x="39.586" y="20.621" width="2.072" height="2.074" style="fill:#62ff88;"/><rect x="38.589" y="14.364" width="2.072" height="2.074" style="fill:#62ff88;"/><rect x="43.876" y="32.569" width="2.072" height="2.074" style="fill:#62ff88;"/><rect x="38.845" y="17.272" width="2.072" height="2.075" style="fill:#62ff88;"/><rect x="53.779" y="113.598" width="2.075" height="2.075" style="fill:#62ff88;"/><rect x="53.779" y="116.269" width="2.075" height="2.075" style="fill:#62ff88;"/><rect x="53.779" y="121.61" width="2.075" height="2.074" style="fill:#62ff88;"/><rect x="53.779" y="118.94" width="2.075" height="2.074" style="fill:#62ff88;"/><rect x="53.779" y="126.951" width="2.075" height="2.074" style="fill:#62ff88;"/><rect x="53.779" y="124.281" width="2.075" height="2.074" style="fill:#62ff88;"/><rect x="53.779" y="108.256" width="2.075" height="2.075" style="fill:#62ff88;"/><path d="M53.778,102.913l0,2.075l2.075,0l0,-0.733c-0.326,-0.448 -0.673,-0.881 -0.976,-1.342l-1.099,0Z" style="fill:#62ff88;fill-rule:nonzero;"/><rect x="56.601" y="129.621" width="2.075" height="2.073" style="fill:#62ff88;"/><rect x="56.601" y="126.951" width="2.075" height="2.074" style="fill:#62ff88;"/><rect x="56.601" y="124.281" width="2.075" height="2.074" style="fill:#62ff88;"/><rect x="53.779" y="110.927" width="2.075" height="2.075" style="fill:#62ff88;"/><rect x="53.779" y="105.586" width="2.075" height="2.075" style="fill:#62ff88;"/><rect x="45.319" y="108.256" width="2.073" height="2.075" style="fill:#62ff88;"/><rect x="45.315" y="102.91" width="2.073" height="2.075" style="fill:#62ff88;"/><rect x="45.304" y="100.231" width="2.073" height="2.075" style="fill:#62ff88;"/><rect x="45.277" y="97.537" width="2.073" height="2.075" style="fill:#62ff88;"/><rect x="45.224" y="94.818" width="2.074" height="2.073" style="fill:#62ff88;"/><path d="M53.773,101.045l0,1.269l0.745,0c-0.26,-0.415 -0.503,-0.843 -0.745,-1.269" style="fill:#62ff88;fill-rule:nonzero;"/><rect x="45.319" y="110.927" width="2.073" height="2.075" style="fill:#62ff88;"/><rect x="45.318" y="105.586" width="2.073" height="2.075" style="fill:#62ff88;"/><rect x="42.69" y="73.798" width="2.073" height="2.074" style="fill:#62ff88;"/><rect x="45.132" y="92.061" width="2.073" height="2.074" style="fill:#62ff88;"/><rect x="43.439" y="77.154" width="2.073" height="2.074" style="fill:#62ff88;"/><rect x="44.015" y="80.355" width="2.073" height="2.074" style="fill:#62ff88;"/><rect x="45.65" y="36.868" width="2.071" height="2.073" style="fill:#62ff88;"/><rect x="44.985" y="89.255" width="2.073" height="2.075" style="fill:#62ff88;"/><rect x="44.763" y="86.383" width="2.073" height="2.074" style="fill:#62ff88;"/><path d="M25.563,7.762l0,-0.899c-0.542,0.295 -1.086,0.587 -1.616,0.899l1.616,0Z" style="fill:#62ff88;fill-rule:nonzero;"/><path d="M104.555,110.958l0,2.043l2.074,0l0,-2.075l-2.032,0c-0.015,0.012 -0.028,0.021 -0.042,0.031" style="fill:#62ff88;fill-rule:nonzero;"/><path d="M31.159,10.9l0,1.311l2.075,0l0,-2.074l-0.536,0c-0.514,0.252 -1.031,0.496 -1.54,0.763" style="fill:#62ff88;fill-rule:nonzero;"/><rect x="47.44" y="41.18" width="2.071" height="2.075" style="fill:#62ff88;"/><rect x="45.319" y="113.598" width="2.073" height="2.075" style="fill:#62ff88;"/><path d="M38.742,13.909l2.072,0l0,-0.909c-0.698,0.284 -1.388,0.581 -2.072,0.891l0,0.018Z" style="fill:#62ff88;fill-rule:nonzero;"/><path d="M10.417,1.715l0,-0.054c-0.026,0.018 -0.051,0.036 -0.079,0.054l0.079,0Z" style="fill:#62ff88;fill-rule:nonzero;"/><rect x="45.319" y="118.94" width="2.073" height="2.074" style="fill:#62ff88;"/><path d="M7.745,2.658l0,1.177l2.073,0l0,-2.074l-0.9,-0c-0.394,0.292 -0.784,0.592 -1.173,0.896" style="fill:#62ff88;fill-rule:nonzero;"/><rect x="45.319" y="116.269" width="2.073" height="2.075" style="fill:#62ff88;"/><rect x="45.319" y="121.61" width="2.073" height="2.074" style="fill:#62ff88;"/><path d="M3.606,3.78l0,1.515l2.073,0l0,-2.075l-1.416,0c-0.219,0.188 -0.442,0.368 -0.657,0.559" style="fill:#62ff88;fill-rule:nonzero;"/><path d="M3.47,0.597l0,-0.597c-0.241,0.193 -0.472,0.4 -0.709,0.597l0.709,0Z" style="fill:#62ff88;fill-rule:nonzero;"/><rect x="29.252" y="21.659" width="2.075" height="2.075" style="fill:#62ff88;"/><rect x="32.3" y="35.054" width="2.076" height="2.075" style="fill:#62ff88;"/><rect x="35.256" y="40.437" width="2.076" height="2.073" style="fill:#62ff88;"/><rect x="37.924" y="45.557" width="2.075" height="2.073" style="fill:#62ff88;"/><rect x="29.102" y="29.451" width="2.076" height="2.073" style="fill:#62ff88;"/><rect x="19.202" y="12.355" width="2.076" height="2.074" style="fill:#62ff88;"/><rect x="25.748" y="23.703" width="2.076" height="2.074" style="fill:#62ff88;"/><rect x="22.375" y="17.936" width="2.076" height="2.075" style="fill:#62ff88;"/><path d="M46.508,66.784l0,0.995c0.109,-0.334 0.223,-0.665 0.343,-0.995l-0.343,0Z" style="fill:#62ff88;fill-rule:nonzero;"/><rect x="40.289" y="50.397" width="2.076" height="2.074" style="fill:#62ff88;"/><rect x="16.527" y="7.231" width="2.076" height="2.074" style="fill:#62ff88;"/><rect x="15.442" y="14.164" width="2.073" height="2.075" style="fill:#62ff88;"/><path d="M46.311,64.734c0.203,-0.509 0.457,-0.993 0.684,-1.489l-1.434,0l0,2.075l0.549,0c0.072,-0.193 0.125,-0.395 0.201,-0.586" style="fill:#62ff88;fill-rule:nonzero;"/><rect x="42.352" y="54.959" width="2.076" height="2.075" style="fill:#62ff88;"/><path d="M44.123,61.329l1.706,0c0.126,-0.267 0.235,-0.542 0.37,-0.805l0,-1.271l-2.076,0l0,2.075Z" style="fill:#62ff88;fill-rule:nonzero;"/><rect x="11.354" y="7.744" width="2.073" height="2.074" style="fill:#62ff88;"/><rect x="23.472" y="8.344" width="2.075" height="2.075" style="fill:#62ff88;"/><path d="M47.698,52.018l0,1.065c0.287,-0.363 0.592,-0.712 0.894,-1.065l-0.894,0Z" style="fill:#62ff88;fill-rule:nonzero;"/><rect x="26.799" y="16.739" width="2.075" height="2.074" style="fill:#62ff88;"/><rect x="24.797" y="12.23" width="2.075" height="2.074" style="fill:#62ff88;"/><rect x="44.551" y="43.79" width="2.075" height="2.073" style="fill:#62ff88;"/><path d="M46.508,50.329l1.428,0c0.216,-0.241 0.424,-0.489 0.647,-0.725l0,-1.348l-2.075,0l0,2.073Z" style="fill:#62ff88;fill-rule:nonzero;"/><rect x="31.941" y="26.797" width="2.075" height="2.074" style="fill:#62ff88;"/><rect x="39.881" y="42.095" width="2.075" height="2.073" style="fill:#62ff88;"/><rect x="42.19" y="46.882" width="2.075" height="2.073" style="fill:#62ff88;"/><rect x="42.444" y="39.185" width="2.075" height="2.075" style="fill:#62ff88;"/><rect x="37.363" y="37.112" width="2.075" height="2.075" style="fill:#62ff88;"/><rect x="44.258" y="51.451" width="2.075" height="2.074" style="fill:#62ff88;"/><rect x="34.687" y="31.988" width="2.075" height="2.073" style="fill:#62ff88;"/><rect x="50.959" y="110.927" width="2.076" height="2.075" style="fill:#62ff88;"/><rect x="50.959" y="121.61" width="2.076" height="2.074" style="fill:#62ff88;"/><rect x="50.959" y="118.94" width="2.076" height="2.074" style="fill:#62ff88;"/><rect x="50.959" y="124.281" width="2.076" height="2.074" style="fill:#62ff88;"/><rect x="50.959" y="116.269" width="2.076" height="2.075" style="fill:#62ff88;"/><path d="M51.63,96.792c-0.259,-0.641 -0.46,-1.302 -0.68,-1.958l-0.066,0l0,2.074l0.8,0c-0.017,-0.039 -0.039,-0.077 -0.054,-0.116" style="fill:#62ff88;fill-rule:nonzero;"/><rect x="19.618" y="20.666" width="2.073" height="2.074" style="fill:#62ff88;"/><rect x="50.959" y="105.586" width="2.076" height="2.075" style="fill:#62ff88;"/><path d="M48.357,83.47l-1.039,0l0,2.075l1.133,0c-0.054,-0.685 -0.078,-1.379 -0.094,-2.075" style="fill:#62ff88;fill-rule:nonzero;"/><rect x="50.957" y="102.912" width="2.076" height="2.075" style="fill:#62ff88;"/><rect x="50.959" y="113.598" width="2.076" height="2.075" style="fill:#62ff88;"/><rect x="50.95" y="100.236" width="2.076" height="2.075" style="fill:#62ff88;"/><rect x="50.959" y="108.256" width="2.076" height="2.075" style="fill:#62ff88;"/><path d="M52.004,97.547l-1.075,0l0,2.074l2.033,0c-0.345,-0.678 -0.657,-1.373 -0.958,-2.074" style="fill:#62ff88;fill-rule:nonzero;"/><path d="M48.783,86.417l-1.163,0l0,2.074l1.455,0c-0.105,-0.689 -0.227,-1.373 -0.293,-2.074" style="fill:#62ff88;fill-rule:nonzero;"/><rect x="33.79" y="44.351" width="2.073" height="2.074" style="fill:#62ff88;"/><rect x="30.771" y="38.912" width="2.073" height="2.073" style="fill:#62ff88;"/><path d="M47.905,82.22c0,-0.606 0.054,-1.199 0.081,-1.798l-1.079,0l0,2.074l1.011,0c-0.001,-0.092 -0.013,-0.183 -0.013,-0.275" style="fill:#62ff88;fill-rule:nonzero;"/><rect x="38.721" y="54.216" width="2.073" height="2.075" style="fill:#62ff88;"/><rect x="23.64" y="27.029" width="2.073" height="2.073" style="fill:#62ff88;"/><rect x="27.38" y="33.129" width="2.073" height="2.075" style="fill:#62ff88;"/><rect x="36.435" y="49.449" width="2.073" height="2.074" style="fill:#62ff88;"/><rect x="40.671" y="58.675" width="2.073" height="2.075" style="fill:#62ff88;"/><path d="M47.649,77.251l-1.287,0l0,2.073l1.107,0c0.044,-0.695 0.101,-1.387 0.18,-2.073" style="fill:#62ff88;fill-rule:nonzero;"/><path d="M44.786,72.537l1.813,0c0.076,-0.369 0.172,-0.729 0.26,-1.093l0,-0.982l-2.073,0l0,2.075Z" style="fill:#62ff88;fill-rule:nonzero;"/><path d="M47.336,73.941l-1.67,0l0,2.074l1.37,0c0.091,-0.693 0.17,-1.392 0.3,-2.074" style="fill:#62ff88;fill-rule:nonzero;"/><rect x="43.674" y="66.772" width="2.073" height="2.075" style="fill:#62ff88;"/><rect x="42.312" y="62.851" width="2.073" height="2.075" style="fill:#62ff88;"/></g></svg>