<svg xmlns="http://www.w3.org/2000/svg" viewBox="0 0 64 64" role="img" aria-labelledby="title desc">
  <title id="title">BDigital Logo</title>
  <desc id="desc">Stylized letter B representing BDigital agency</desc>
  <rect width="64" height="64" rx="12" fill="#00d4ff" />
  <path
    d="M20 16h15c7.18 0 13 5.82 13 13 0 4.43-2.22 8.35-5.62 10.72C45.2 41.2 47 44.81 47 49c0 5.52-4.48 10-10 10H20zM30 28a5 5 0 0 0 0 10h5c2.76 0 5-2.24 5-5s-2.24-5-5-5zm0-12a5 5 0 0 0 0 10h5c2.76 0 5-2.24 5-5s-2.24-5-5-5z"
    fill="#0f172a"
  />
</svg>
