<?xml version="1.0" encoding="utf-8"?>
<!-- Generator: Adobe Illustrator 26.1.0, SVG Export Plug-In . SVG Version: 6.00 Build 0)  -->
<svg version="1.1" id="Layer_1" xmlns="http://www.w3.org/2000/svg" xmlns:xlink="http://www.w3.org/1999/xlink" x="0px" y="0px"
	 viewBox="0 0 512 512" enable-background="new 0 0 512 512" xml:space="preserve">
<g opacity="0.3">
	<path fill="#00D4FF" d="M76.62-0.12h358.4c42.42,0,76.8,34.38,76.8,76.8v358.4c0,42.42-34.38,76.8-76.8,76.8H76.62
		c-42.42,0-76.8-34.38-76.8-76.8V76.68C-0.18,34.27,34.21-0.12,76.62-0.12z"/>
</g>
<g>
	<path fill="#00D4FF" d="M76.62-0.12h358.4c42.42,0,76.8,34.38,76.8,76.8v358.4c0,42.42-34.38,76.8-76.8,76.8H76.62
		c-42.42,0-76.8-34.38-76.8-76.8V76.68C-0.18,34.27,34.21-0.12,76.62-0.12z"/>
</g>
<g transform="translate(8,8)">
	<rect x="55.57" y="61.16" fill="#0B2647" width="117.02" height="67.03"/>
	<rect x="189.31" y="61.16" fill="#0B2647" width="117.02" height="67.03"/>
	<rect x="55.57" y="137.77" fill="#0B2647" width="117.02" height="67.03"/>
	<rect x="323.05" y="137.77" fill="#0B2647" width="117.02" height="67.03"/>
	<rect x="55.57" y="214.37" fill="#0B2647" width="117.02" height="67.03"/>
	<rect x="189.31" y="214.37" fill="#0B2647" width="117.02" height="67.03"/>
	<rect x="55.57" y="290.97" fill="#0B2647" width="117.02" height="67.03"/>
	<rect x="323.05" y="290.97" fill="#0B2647" width="117.02" height="67.03"/>
	<rect x="55.57" y="367.57" fill="#0B2647" width="117.02" height="67.03"/>
	<rect x="189.31" y="367.57" fill="#0B2647" width="117.02" height="67.03"/>
</g>
</svg>
